<?xml version="1.0" encoding="utf-8"?>
<!-- Generator: Adobe Illustrator 27.2.0, SVG Export Plug-In . SVG Version: 6.00 Build 0)  -->
<svg version="1.1"
	 id="svg3799" xmlns:sodipodi="http://sodipodi.sourceforge.net/DTD/sodipodi-0.dtd" xmlns:svg="http://www.w3.org/2000/svg" xmlns:rdf="http://www.w3.org/1999/02/22-rdf-syntax-ns#" xmlns:inkscape="http://www.inkscape.org/namespaces/inkscape" xmlns:dc="http://purl.org/dc/elements/1.1/" xmlns:cc="http://creativecommons.org/ns#"
	 xmlns="http://www.w3.org/2000/svg" xmlns:xlink="http://www.w3.org/1999/xlink" x="0px" y="0px" viewBox="0 0 64.2 64.2"
	 style="enable-background:new 0 0 64.2 64.2;" xml:space="preserve">
<style type="text/css">
	.st0{fill:#6699FF;}
	.st1{fill:#FF4B50;}
	.st2{fill:#FFAAAD;}
	.st3{fill:#7789FF;}
	.st4{fill:#7A99FF;}
	.st5{fill:#4E87FF;}
	.st6{fill:#FF8A8D;}
	.st7{fill:#1E1E1E;}
	.st8{fill:#151515;}
	.st9{fill:#242424;}
	.st10{fill:#393939;}
	.st11{fill:#868686;}
	.st12{fill:#262626;}
	.st13{fill:#333333;}
	.st14{fill:#2D2D2D;}
	.st15{fill:#181818;}
	.st16{fill:#131313;}
	.st17{fill:#2A2A2A;}
	.st18{fill:#343434;}
	.st19{fill:#363636;}
	.st20{fill:#404040;}
	.st21{fill:#272727;}
	.st22{fill:#444444;}
	.st23{fill:#373737;}
	.st24{fill:#686868;}
	.st25{fill:#202020;}
	.st26{fill:#474747;}
	.st27{fill:#292929;}
	.st28{fill:#555555;}
	.st29{fill:#5F5F5F;}
	.st30{fill:#1A1A1A;}
	.st31{fill:#3C3C3C;}
	.st32{fill:#282828;}
	.st33{fill:#383838;}
	.st34{fill:#2E2E2E;}
	.st35{fill:#4F4F4F;}
	.st36{fill:#2F2F2F;}
	.st37{fill:#626262;}
	.st38{fill:#5A5A5A;}
	.st39{fill:#606060;}
	.st40{fill:#2B2B2B;}
	.st41{fill:#616161;}
	.st42{fill:#595959;}
	.st43{fill:#5C5C5C;}
	.st44{fill:#232323;}
	.st45{fill:#5D5D5D;}
	.st46{fill:#454545;}
	.st47{fill:#494949;}
	.st48{fill:#525252;}
	.st49{fill:#636363;}
	.st50{fill:#7C7C7C;}
	.st51{fill:#646464;}
	.st52{fill:#4C4C4C;}
	.st53{fill:#535353;}
	.st54{fill:#484848;}
	.st55{fill:#5E5E5E;}
	.st56{fill:#252525;}
	.st57{fill:#1F1F1F;}
	.st58{fill:#111111;}
	.st59{fill:#1B1B1B;}
	.st60{fill:#171717;}
	.st61{fill:#101010;}
	.st62{fill:#212121;}
	.st63{fill:#1D1D1D;}
	.st64{fill:#222222;}
	.st65{fill:#141414;}
	.st66{fill:#0F0F0F;}
	.st67{fill:#1C1C1C;}
	.st68{fill:#FF5E63;}
	.st69{fill:#3E3E3E;}
	.st70{fill:#353535;}
	.st71{fill:#303030;}
	.st72{fill:#323232;}
	.st73{fill:#161616;}
	.st74{fill:#313131;}
	.st75{fill:#4E4E4E;}
	.st76{fill:#434343;}
	.st77{fill:#4A4A4A;}
	.st78{fill:#414141;}
	.st79{fill:#424242;}
	.st80{fill:#808080;}
	.st81{fill:#464646;}
	.st82{fill:#3F3F3F;}
	.st83{fill:#505050;}
	.st84{fill:#3B3B3B;}
	.st85{fill:#7D7D7D;}
	.st86{fill:#5B5B5B;}
	.st87{fill:#3D3D3D;}
	.st88{fill:#4D4D4D;}
	.st89{fill:#121212;}
	.st90{fill:#8B8B8B;}
	.st91{fill:#2C2C2C;}
	.st92{stroke:#FFFFFF;stroke-width:3;stroke-miterlimit:10;}
</style>
<path class="st0" d="M42.5,53c0,0.2,0.1,0.4,0,0.7c0.1,0.5,0,0.9,0.1,1.4l0,0c-0.1,0.1,0.1,0.4-0.2,0.4c-0.2,0-0.3-0.2-0.4-0.4
	c-0.1-0.3-0.4-0.6-0.5-1c-0.2-0.5-0.5-1.1-0.7-1.6c-0.1-0.2-0.1-0.5-0.2-0.8c0-0.1,0-0.2,0-0.2c0,0.1-0.1,0.2-0.2,0.2
	c-0.5,0.2-1,0-1.4,0.1c-0.4-0.1-0.8-0.1-1.2,0c-0.6-0.1-1.1,0.1-1.4,0.6c-0.6,0.9-1.4,1.8-2,2.7c-0.2,0.3-0.4,0.4-0.7,0.4
	c-0.3-0.1-0.5-0.3-0.6-0.5s-0.2-0.3-0.4-0.5c-0.2-0.3-0.4-0.5-0.7-0.7c-0.5-0.6-1-1.2-1.5-1.8s-1-1-1.7-1.3
	c-0.3-0.2-0.6-0.4-0.9-0.5c-0.5-0.4-1.1-0.6-1.6-0.9c-0.5-0.3-1.1-0.6-1.6-1c-0.1-0.1-0.3-0.2-0.5-0.4v-0.1c0-0.4-0.1-0.8-0.2-1.3
	c0-0.2,0-0.5,0-0.7c0-0.1,0-0.3,0-0.4c0.2-0.5,0-1.1-0.1-1.6c0.1-1-0.1-2-0.1-3.1c0-0.2,0-0.4,0-0.6c0-0.1,0-0.2-0.1-0.3
	c-0.3-0.8-0.6-1.7-0.9-2.5c-0.1-0.3-0.1-0.7-0.3-1c-0.1-0.3-0.2-0.6-0.3-0.9c-0.1-0.4-0.4-0.8-0.3-1.3c0-0.2,0.1-0.3,0.2-0.4
	c0.1-0.1,0.1-0.1,0.3-0.2c0.1,0,0.2-0.1,0.2-0.1c0.5,0,1.1-0.1,1.5-0.4h0.1c0.6,0,1.2-0.2,1.9-0.3c0.4-0.3,0.7-0.6,1-0.9
	c0.5-0.4,1.1-0.8,1.6-1.3c0-0.1,0.1-0.1,0.2-0.1c0.2,0,0.3,0.1,0.4,0.3c-0.1,0.1-0.1,0.2-0.1,0.4c0.1,0.2,0.1,0.3,0.1,0.5
	c0.1-0.3-0.3-0.5-0.1-0.8c0.4-0.1,0.6,0.3,0.9,0.3c0.7,0.7,1.5,1.3,2.2,2c0.6,0.6,1.4,1.1,2,1.8c0.2,0.2,0.4,0.5,0.8,0.5
	c0.9,0.1,1.7,0.1,2.6,0.2c1.1,0.1,2.3,0.1,3.4,0.3c0.2,0,0.3,0,0.5,0c0.3,0,0.6,0,0.8,0.2c0,0.4-0.2,0.5-0.5,0.6s-0.6,0.3-0.8,0.4
	c-0.1,0.1-0.2,0.1-0.3,0.1c-0.3,0.1-0.6,0.2-0.8,0.4c-1.3,0.6-2.5,1.3-3.7,2c-0.9,0.5-1.8,1-2.7,1.4c-0.2,0.1-0.3,0.2-0.4,0.3h-0.1
	c-0.1,0-0.2,0.1-0.4,0c-0.1-0.1-0.2-0.2-0.2-0.3c0.2,0.1,0,0.6,0.5,0.4c0.4-0.1,0.7,0.1,1,0.3s0.6,0.4,0.9,0.5
	c0.4,0.3,0.8,0.5,1.2,0.7c1.3,0.6,2.4,1.3,3.7,2c0.1,0,0.1,0.1,0.2,0.1c0,0.1,0.1,0.2,0.1,0.2c0.6,0.5,0.8,1.2,1.4,1.7
	c0.3,0.5,0.6,0.9,0.9,1.3c0.2,0.4,0.3,0.8,0.5,1.2v0.1c-0.1,0.4-0.1,0.8,0,1.2c-0.1,0.2,0,0.4-0.1,0.5l-0.1,0.1
	C42.4,52.1,42.4,52.5,42.5,53z"/>
<path class="st1" d="M35,35.5c-0.3-0.1-0.5-0.2-0.7-0.5c-0.5-0.6-1.2-1.1-1.8-1.6c-0.6-0.6-1.2-1.1-1.9-1.6
	c-0.2-0.1-0.3-0.3-0.5-0.5s-0.3-0.3-0.5-0.5c-0.1,0-0.2-0.1-0.1-0.2c0-0.1,0.2-0.1,0.3-0.1c0.4,0.1,0.8,0,1.2,0.2
	c-0.5-0.2-1.1,0-1.7-0.3c-0.2-0.3,0.1-0.6-0.1-0.8c0,0.1,0.2,0.4-0.1,0.5c-0.2,0-0.3,0-0.4-0.2c-0.4-0.7-0.9-1.4-1.2-2.1
	c0-0.1,0.1-0.2,0.1-0.3c-0.2,0.1-0.4,0-0.6,0c-0.1-0.1-0.2-0.1-0.3-0.2c-0.2-0.3-0.5-0.5-0.8-0.6c-0.2-0.2-0.4-0.3-0.5-0.6
	c0-0.1,0-0.1,0-0.2c0-0.2,0.1-0.4,0.1-0.6c-0.1,0.1,0,0.3-0.2,0.4c-0.2-0.7-0.3-1.4-0.5-2.2c-0.1-0.7-0.3-1.4-0.4-2.1
	c-0.2-0.8-0.3-1.6-0.2-2.5c0.2-0.9,0.3-1.8,0.4-2.6c0.1-0.8,0.2-1.6,0.4-2.4c0.1-0.3,0-0.7,0.1-1c0.2,0,0.2,0.3,0.3,0.4
	c-0.1-0.3-0.2-0.6-0.1-0.9c0.3-0.6,0.7-1.1,1-1.7c0.3-0.5,0.6-1.1,1-1.5c0.2,0.2,0.1,0.5,0.1,0.7c0-0.2,0-0.5-0.1-0.8
	c0.1-0.1,0.1-0.3,0.2-0.3c0.2,0,0.4-0.1,0.6-0.2c0.1-0.1,0.3-0.2,0.5,0v0.1c-0.1,0.2-0.1,0.4,0,0.6c0.2,0.2,0.1,0.5,0.2,0.7v0.1
	c-0.1,0.4,0,0.9,0.1,1.3c0,0.9,0.2,1.8,0.1,2.6c0,0.5,0.3,0.6,0.6,0.8c0.1,0.1,0.2,0.2,0.3,0.3c0.2,0.4,0.6,0.7,0.8,1v0.1
	c0,0.1,0,0.2,0.1,0.3v0.1c-0.1,0.5-0.3,0.9-0.3,1.4c0,0.2,0,0.4,0.1,0.6c-0.1,0.2,0.1,0.5,0,0.7c-0.4,0.1-0.3-0.1-0.3-0.3
	c-0.1,0.2-0.4,0.1-0.7,0.1c-0.2-0.2-0.4-0.1-0.7-0.1c0.2,0,0.4,0,0.6,0.1c0.6-0.1,0.9,0.2,0.9,0.8c0,0.2,0.1,0.5,0.2,0.7
	c0,0.6,0.1,1.3,0.3,1.9c0,0.4,0.1,0.8,0.1,1.3c0,0.2,0,0.4-0.2,0.5c-0.1,0.1,0,0.1,0,0.1c0.1,0.3,0.4,0.5,0.8,0.4
	c0.1,0,0.3,0,0.4,0.1c1.1,0.5,2.2,1.2,3.4,1.6c0.2,0.1,0.4,0.2,0.5,0.3c0.3,0.2,0.6,0.4,0.9,0c0.1-0.1,0.1-0.1,0.2-0.1
	c0,0,0.1,0,0.1,0.1c0,0.6,0.5,0.8,1,0.9c0.1,0,0.1,0,0.2,0.1c0.2,0.2,0.5,0.3,0.8,0.3c0.3,0.2,0.6,0.2,0.8,0.3
	c0.2,0.2,0.5,0.3,0.8,0.3c0.6,0.3,1.2,0.4,1.7,0.6c0.2,0.1,0.4,0.3,0.7,0.3h0.1c0.3,0.3,0.3,0.3-0.1,0.4c-0.2,0-0.3,0.1-0.5,0.1
	c-0.1,0-0.2,0-0.3,0.1c0.1,0,0.2-0.1,0.3-0.1c0.3-0.1,0.7-0.1,1-0.3c0.2-0.1,0.3,0.1,0.4,0.2c0.6,0.6,0.9,1.4,1.3,2.1
	c0.1,0.2,0.2,0.4,0.3,0.6c0.1,0.2,0.2,0.3,0,0.5c-0.3,0.1-0.5,0-0.8,0.1h-0.1c-0.2-0.1-0.4-0.3-0.7-0.2c-0.3,0-0.5-0.1-0.8-0.2
	c-0.5-0.1-1-0.2-1.5-0.3c-0.8-0.2-1.7-0.4-2.5-0.5c-0.3-0.1-0.7,0-1.2-0.1c-0.3-0.1-0.5-0.1-0.8-0.3c-0.2-0.2-0.4-0.2-0.6-0.3
	c-0.1-0.1-0.2,0-0.3,0h0.1c0.1,0,0.2,0,0.3,0c0.1,0.1,0.2,0.2,0.2,0.3c0,0.1,0,0.1,0,0.2c-0.1,0.3-0.3,0.5-0.4,0.9
	c0,0,0,0.1-0.1,0.1c-0.2,0.3-0.4,0.4-0.4,0.8c-0.2,0.5-0.4,1-0.7,1.4C35.3,35.3,35.2,35.5,35,35.5z"/>
<path class="st2" d="M46,4.1c0.1,0.1,0.2,0.1,0.3,0c0.2,0.1,0.3,0.2,0.3,0.4c0,0.3,0,0.7-0.1,1c-0.1,0.4-0.2,0.8-0.2,1.1
	C46,7.2,46.1,7.8,46,8.4c0,0.2-0.1,0.4-0.2,0.6c-0.4,0.3-0.8,0.5-1.2,0.6c-0.1,0-0.3,0.1-0.4,0.2c-0.1,0.1-0.2,0-0.3,0.1l0,0
	c0.1-0.1,0.2-0.1,0.4-0.1c0.4-0.2,0.9-0.4,1.3-0.5c0.3-0.1,0.4,0,0.4,0.3c0,0.1,0.1,0.2,0.1,0.3c-0.2-0.5,0-0.9,0.5-1.2
	C46.7,8.3,47,8.2,47.3,8c0.3-0.1,0.6-0.3,0.9-0.5c0.2-0.1,0.4-0.2,0.6-0.4c0.5-0.2,1.1-0.4,1.5-0.8c0.9-0.5,1.8-0.9,2.7-1.5
	c0.7-0.2,0.7-0.1,1,0.5c0,0.2,0.1,0.4,0.2,0.7c0,0,0,0.1,0.1,0.1c0.1,0.3,0.2,0.7,0.4,1c0,0.2,0.1,0.3,0.2,0.5
	c0.1,0.5,0.3,1.1,0.5,1.5v0.1c0.1,0.5,0.2,0.9,0.3,1.3c0.1,0.3,0.3,0.5,0.3,0.8c0.1,0.5,0.2,1,0.5,1.5v0.1c-0.1,0.4-0.4,0.7-0.5,1
	L55.9,14c-0.4,0.2-0.6,0.7-0.8,1L55,15.1c-0.4,0.2-0.5,0.6-0.7,1l-0.1,0.1c-0.3,0.3-0.5,0.7-0.8,1l-0.1,0.1c-0.3,0.3-0.6,0.5-0.8,1
	c-0.1,0.1-0.2,0.3-0.4,0.3s-0.2-0.1-0.3-0.2c-0.2-0.3-0.4-0.6-0.6-0.9c-0.2-0.5-0.6-0.8-0.7-1.3c-0.1-0.4-0.3-0.4-0.7-0.3
	c-0.7,0.3-1.5,0.5-2.3,0.8c-0.2,0.1-0.4,0.1-0.6,0c-0.2-0.2-0.4-0.2-0.6-0.3c-0.2-0.2-0.4-0.4-0.6-0.5c-0.2-0.2-0.4-0.4-0.7-0.6
	c-0.6-0.7-1.4-1.2-2.1-1.9c-0.1-0.1-0.2-0.2-0.3-0.4s-0.3-0.2-0.5-0.3c0,0-0.1,0-0.1-0.1c-0.2-0.3-0.6-0.4-0.9-0.5L41,12
	c-0.2-0.2-0.5-0.4-0.8-0.5c-0.1-0.1-0.1-0.1-0.1-0.2c0-0.2-0.1-0.5-0.1-0.7c0.2-0.6,0.4-1.2,0.5-1.9c0.1-0.2,0.2-0.3,0.3-0.5
	c0.1-0.3,0.3-0.1,0.5-0.2h0.1l0.1,0.1h-0.1c-0.1-0.1-0.2,0-0.3-0.1c-0.2-0.1-0.2-0.3-0.1-0.5c0.4-0.9,0.9-1.8,1.3-2.7
	c0.2-0.4,0.4-0.4,0.7-0.1c-0.2-0.2-0.2-0.2-0.2-0.4c0.5-0.1,1-0.1,1.5-0.2c0.3,0,0.5-0.2,0.7-0.2C45.2,4.3,45.6,4.3,46,4.1z"/>
<path class="st3" d="M11.1,43.2c-0.5-0.6-0.8-1.2-1.2-1.8c-0.1-0.1-0.1-0.2-0.2-0.3c-0.6-0.6-0.6-1.4-0.4-2.2c0.1-0.5,0.2-1,0.3-1.6
	s0.2-1.1,0.3-1.7c0.1-0.4,0.1-0.9,0.2-1.3c0.2,0,0.2,0,0.3,0.4c-0.1-0.6-0.1-0.7,0.5-0.6c0.3,0.2,0.6,0.4,0.8,0.6
	c0.2,0.3,0.6,0.5,0.9,0.7c0.1,0.1,0.1,0.2,0.1,0.3c-0.1,0.2-0.3,0.3-0.4,0.4c0.5-0.4,0.9-0.9,1.4-1.3c0.3-0.2,0.6-0.4,0.9-0.6
	c0.7-0.5,1.5-1,2.1-1.6c0.2-0.1,0.3-0.2,0.5-0.3c0.1-0.1,0.2-0.1,0.4,0c0.1,0.2,0.1,0.5,0.2,0.7c0,0.4,0.1,0.7,0.2,1.1
	c0,0.3,0.1,0.5,0.1,0.8c0-0.3-0.1-0.6-0.1-0.9c-0.1-0.3-0.1-0.7-0.2-1c0-0.3-0.3-0.5,0-0.8c0.7,0,1.3,0.1,1.9,0.4
	c0.6,0.3,1.2,0.4,1.8,0.6c0.2,0.1,0.3,0.1,0.4,0.2c0.1,0.1,0.1,0.2,0.1,0.3c0,0.4-0.2,0.8-0.4,1.1c-0.8,1.6-1.5,3.2-2.3,4.8
	c-0.1,0.2-0.1,0.4-0.4,0.4c-0.2-0.1-0.2-0.3-0.3-0.5c-0.1-0.5-0.2-1.1-0.2-1.5c0,0.5,0.1,1,0.2,1.5c0.2,0.3,0.1,0.6-0.1,0.9
	c-0.1,0.1-0.3,0.1-0.5,0.2c-0.3,0.1-0.6,0.3-0.9,0.5c-0.2,0.1-0.3,0.1-0.5,0.2c-0.4,0.1-0.8,0.2-1.1,0.4h-0.1
	c-0.6,0.1-1.1,0.3-1.6,0.5c-0.9,0.3-1.7,0.7-2.6,0.8C11.3,43.2,11.2,43.3,11.1,43.2z"/>
<path class="st4" d="M41.7,36.5c0.2,0,0.4-0.2,0.5-0.3c0.1,0,0.2-0.1,0.3-0.2c0.5-0.2,1.1-0.4,1.6-0.6c0.4,0,0.7-0.3,1.1-0.2
	c0.3,0.1,0.4,0.3,0.5,0.6c0.3,0.6,0.4,1.3,0.8,1.8c0.2,0.6,0.4,1.2,0.5,1.8c0,0.1,0,0.2,0,0.3s0,0.2,0.1,0.2
	c0.2,0.3,0.4,0.7,0.3,1.1c0,0,0,0,0,0.1l0,0l0.1,0.1c0,0,0,0,0,0.1l0,0c0.1,0.2,0.1,0.4,0.2,0.6c0.1,0.3,0.2,0.5,0.3,0.8
	s0.2,0.7,0.3,1c0.1,0.2,0.1,0.3,0,0.4c-0.5,0-1-0.1-1.4-0.3c-0.5-0.2-0.9-0.3-1.4-0.5c-0.3-0.1-0.6-0.2-0.7-0.5
	c-0.7-0.7-1.2-1.6-1.7-2.4c-0.2-0.3-0.4-0.4-0.8-0.4c-1.4,0.2-2.8,0.5-4.2,0.8s-2.7,0.5-4.1,0.8c-0.4,0.1-0.8,0.2-1.2-0.1
	c0.1-0.3,0.4-0.3,0.7-0.5c1-0.6,2.1-1.1,3.2-1.7c1-0.5,2-1.1,3-1.6c0.2-0.3,0.6-0.3,0.9-0.5c0.1,0,0.2,0,0.2,0
	C41.1,36.7,41.5,36.7,41.7,36.5z"/>
<path class="st3" d="M12.7,36c-0.1-0.1-0.1-0.1-0.2-0.2c-0.3-0.2-0.7-0.4-0.9-0.7c-0.2-0.2-0.5-0.4-0.7-0.6c-0.1,0-0.2-0.1-0.3-0.1
	c-0.3-0.1-0.3-0.3-0.2-0.5c0.1-0.3,0.3-0.5,0.5-0.7c0.8-0.9,1.4-1.9,2.2-2.7c0.5-0.6,0.9-1.2,1.5-1.6c1.1,0,2.2,0.3,3.2,0.4
	c0.2,0,0.3,0,0.5,0.1c0.3,0.1,0.5,0.3,0.8,0.1c0.2,0.1,0.5,0.1,0.7,0.1s0.5,0.2,0.7,0.1c0.3,0,0.6,0.1,0.8,0.2
	c0.2,0.2,0.5,0.1,0.7,0.3c0,0.1,0,0.1,0,0.2c-0.1,0.1-0.3,0.1-0.5,0.1c-0.2,0.1-0.4,0.1-0.4,0.4c-0.2,0.3-0.5,0.4-0.8,0.5
	c-0.6,0.3-1.2,0.6-1.9,0.8c-0.2,0.1-0.3,0.1-0.5,0.1c-0.1-0.1-0.2,0.1-0.4,0.1c-0.2,0.2-0.5,0.3-0.7,0.5c-0.7,0.5-1.4,1-2.1,1.6
	c-0.3,0.1-0.6,0.4-0.8,0.6c-0.4,0.2-0.6,0.5-0.9,0.7C12.9,35.9,12.9,36,12.7,36z"/>
<path class="st5" d="M17,56.5c-0.7-0.3-1.4-0.6-2.1-1c-0.7-0.4-1.4-0.8-2.2-1.1c-0.4-0.2-0.6-0.5-0.8-0.8c-0.5-0.6-1-1.2-1.5-1.8
	c-0.2-0.2-0.3-0.5-0.5-0.7c0-0.1,0.1-0.2-0.1-0.2c-0.1,0-0.1-0.1-0.2-0.2c-0.2-1-0.3-2-0.5-3c0.2-0.4,0.7-0.4,1.1-0.4
	c0.7,0.1,1.4,0.1,2.1,0.1c0.2,0,0.4,0,0.7,0.1c0.1,0,0.1,0.1,0.2,0.2c0.1,0.1,0.1,0.1,0.1,0.2c0,0.4,0.2,0.6,0.5,0.8l0.1,0.1
	c0.2,0.4,0.4,0.7,0.7,1l0.1,0.1c0.3,0.7,0.8,1.3,1.3,1.9c0.1,0.2,0.3,0.3,0.3,0.5c0.1,0.1,0.1,0.3,0,0.4c-0.4,0.1-0.7,0.1-1.1,0
	h-0.1l0,0c0.4,0.2,0.3,0.6,0.6,0.9c0.1,0.2,0.2,0.3,0.3,0.5c0.3,0.7,0.6,1.3,1,1.9c0.1,0.1,0.1,0.2,0.1,0.3
	C17.2,56.3,17.2,56.4,17,56.5z"/>
<path class="st4" d="M25.2,26.1c0.3,0.1,0.4,0.3,0.6,0.4c0.3,0.2,0.6,0.3,0.9,0.6c0.1,0.1,0.1,0.2,0.2,0.2c0.1,0.1,0.1,0.1,0.2,0.2
	c0.1,0,0.2,0.1,0.2,0.2c0,0.2-0.2,0.2-0.3,0.2c0.1,0,0.2-0.1,0.4-0.1c0.4,0.4,0.6,1,0.9,1.4c0.2,0.3,0.3,0.6,0.6,0.9
	c0.1,0.1,0.2,0.2,0.2,0.3c0,0.1-0.1,0.1-0.1,0.2c-0.3,0.5-0.9,0.8-1.3,1.2c-0.1,0.1-0.2,0.2-0.3,0.3c-0.4,0.2-0.7,0.6-1.1,0.9
	c-0.1,0-0.2,0-0.2,0c-0.4-0.1-0.7-0.2-1-0.5c-0.4-0.3-0.9-0.5-1.2-0.8c-0.2-0.2-0.4-0.4-0.7-0.5c-0.2-0.2-0.5-0.3-0.6-0.6
	c0.1-0.1,0.1-0.2,0-0.3c0-0.1,0-0.1,0-0.2c0,0,0,0.1-0.1,0.1c-0.1,0.1-0.2,0-0.2,0l-0.1-0.1c-0.2-0.2-0.3-0.5-0.4-0.8
	c-0.1-0.4-0.2-0.8-0.3-1.2c-0.1-0.2-0.1-0.4,0.1-0.6c0.2-0.3,0.7-0.2,1-0.4c0.6-0.3,1.2-0.4,1.8-0.6C24.6,26.4,24.8,26.1,25.2,26.1z
	"/>
<path class="st3" d="M13.1,47.6c-1,0-1.9,0-2.8-0.2c-0.2,0.1-0.5,0-0.7,0s-0.3-0.1-0.3-0.3c0.4-0.5,0.6-1.1,0.8-1.6
	c0.4-0.7,0.8-1.4,1.1-2.2c0.1-0.3,0.5-0.3,0.7-0.4c1.1-0.3,2.1-0.8,3.1-1.1c0.2,0,0.3-0.2,0.5-0.2c0,0,0,0,0.1,0
	c0.4-0.2,0.8-0.3,1.1-0.4c0.2,0,0.3-0.1,0.4-0.2c0.2,0,0.4-0.1,0.6-0.2c0.3-0.1,0.6,0,0.8,0.3c0,0.1-0.1,0.2-0.1,0.3
	c-0.3,0.3-0.6,0.6-0.8,1c0,0,0,0.1-0.1,0.1c-0.3,0.3-0.7,0.6-0.9,1c-0.1,0.1-0.1,0.2-0.2,0.2c-0.4,0.3-0.6,0.7-0.8,1l-0.1,0.1
	c-0.4,0.2-0.6,0.6-0.8,1c-0.1,0.1-0.1,0.1-0.2,0.2c-0.4,0.3-0.7,0.5-0.8,1C13.5,47.3,13.4,47.6,13.1,47.6z"/>
<path class="st2" d="M48.9,7.4c-0.2,0.1-0.4,0.2-0.6,0.3C48,7.9,47.6,8,47.4,8.3c-0.4,0-0.6,0.3-0.9,0.4c-0.1,0.1-0.3,0-0.4,0.2
	c-0.1,0.1-0.2,0-0.2-0.1C46,8.1,46,7.5,46.1,6.9c0-0.1,0-0.2,0.1-0.2c-0.3-0.7,0.2-1.2,0.2-1.9c0-0.2,0-0.4,0-0.7
	c1.1-0.4,2.2-0.7,3.3-1c0.6-0.2,1.2-0.3,1.8-0.5c0.5-0.2,0.9,0.1,1.1,0.5c0.1,0.3,0.4,0.5,0.5,0.8c0,0,0,0,0.1,0.1
	c0.1,0.1,0.2,0.3,0.3,0.4c0.2,0.3,0.2,0.3-0.1,0.5c-0.1,0-0.2,0.1-0.3,0.1c-0.8,0.6-1.7,1-2.6,1.5C49.9,6.8,49.4,7.1,48.9,7.4z"/>
<path class="st5" d="M33.1,61.2c-0.7,0.4-1.4,0.6-2.2,0.8c-0.2,0.1-0.3,0.1-0.4-0.1c-0.2-0.2-0.4-0.3-0.5-0.6
	c-0.3-0.6-0.7-1.2-1-1.8c-0.1-0.3-0.2-0.7-0.5-0.9c-0.2-0.4-0.5-0.7-0.5-1.2c0.1-0.3,0.3-0.4,0.6-0.5c0.9-0.3,1.7-0.6,2.5-0.9
	c0.7-0.2,1.5-0.4,2.2-0.7c0.2-0.1,0.3,0.1,0.5,0c0,0,0.1,0,0.1,0.1c0.2,0.5,0,1,0,1.4c0,0.3-0.1,0.5-0.2,0.8c-0.1,0.1,0,0.3,0,0.5
	c0.1,0.6,0,1.2-0.1,1.8c-0.1,0.2-0.2,0.4-0.2,0.7C33.3,60.9,33.3,61,33.1,61.2z"/>
<path class="st5" d="M29.2,59.5c0.3,0.6,0.7,1.1,1,1.7c0.1,0.1,0.1,0.3,0.2,0.4c0.1,0.1,0.2,0.2,0.1,0.3s-0.3,0.1-0.4,0
	c-0.9-0.5-1.8-0.9-2.7-1.4c-0.4-0.2-0.8-0.5-1.2-0.7c-0.1,0,0.1-0.2-0.1-0.1c-0.2,0.1-0.4,0-0.5,0.1c-0.8-0.1-1.7-0.2-2.5-0.2
	c-1,0-2-0.2-3.1-0.3c-0.1,0-0.1-0.1-0.2-0.1c-0.4,0-0.6-0.2-0.7-0.6c-0.1-0.3-0.3-0.5-0.3-0.8v-0.1c0.2-0.2,0.5-0.2,0.8-0.2
	c0.7,0,1.3,0,2-0.1c0.4,0.1,0.8,0,1.2,0c0.9,0,1.8,0,2.7-0.1c0.4-0.1,0.8,0.1,1.1,0.1c0.2,0,0.4,0,0.7-0.1c0.2-0.1,0.5,0.1,0.7,0.2
	c0.2,0.4,0.3,0.7,0.6,1.1C28.8,58.9,29,59.2,29.2,59.5z"/>
<path class="st4" d="M21.5,27.4c0.2,0.9,0.4,1.8,0.8,2.6c0,0.1,0,0.2-0.1,0.2c-0.3-0.1-0.5,0.1-0.8-0.1c-0.3,0.1-0.5-0.2-0.8-0.2
	c-0.2,0-0.5,0.1-0.7-0.1c-0.2,0-0.5,0-0.7-0.1c-0.3-0.2-0.6,0-0.8-0.2c-0.8-0.1-1.5-0.3-2.3-0.4c-0.3-0.1-0.7-0.1-1-0.1
	c-0.2,0-0.3,0-0.4-0.2c0.3-0.5,0.9-0.7,1.2-1.2c0.4-0.6,1.1-0.5,1.7-0.5s1.2,0.1,1.8,0.1c0.4,0,0.9,0,1.3,0.1
	C20.9,27.4,21.2,27.4,21.5,27.4z"/>
<path class="st6" d="M59.2,18.5C59.3,18.6,59.3,18.6,59.2,18.5c-0.2,0.4-0.3,0.8-0.6,1.1c-0.1,0.1-0.2,0.2,0,0.3
	c0,0.6-0.4,1.1-0.6,1.7c-0.2,0.5-0.4,1-0.6,1.5c-0.3,0.7-0.6,1.4-0.9,2.1c-0.2,0.5-0.3,0.9-0.6,1.4c-0.1,0.3-0.1,0.5-0.4,0.6
	c-0.5,0.4-0.8,0.9-1.3,1.2c-0.3,0-0.5-0.1-0.5-0.4s-0.1-0.7-0.1-1c0.2-0.3,0.3-0.5,0.4-0.8c0.2-0.3,0.3-0.5,0.4-0.8
	c0,0,0-0.1,0.1-0.1c0.2-0.3,0.3-0.6,0.4-0.9c0.3-0.6,0.6-1.2,0.8-1.8c0.2-0.3,0.3-0.6,0.4-0.9c0.4-0.8,0.8-1.7,1.3-2.6
	c0.2-0.4,0.3-0.8,0.6-1.2c0.1-0.1,0.3-0.1,0.4-0.2c0.1,0,0.2,0,0.3,0.1C59,18.1,59.1,18.3,59.2,18.5z"/>
<path class="st5" d="M45.8,43c0.4,0.2,0.9,0.3,1.3,0.5c0.4,0.2,1,0.1,1.3,0.5c-0.4,0.6-1,1-1.7,1.4c-0.5,0.5-0.9,1-1.4,1.5
	c-0.2,0.2-0.5,0.3-0.7,0.6c-0.7,0.3-1.1,0.9-1.7,1.3c-0.1,0.1-0.2,0.1-0.3,0.1c-0.2,0-0.2-0.1-0.2-0.3c0-0.1,0-0.3,0-0.5V48
	c0.2-0.2,0.4-0.5,0.4-0.9c0,0,0-0.1,0.1-0.1c0.2-0.2,0.4-0.5,0.4-0.8c0,0,0-0.1,0.1-0.1c0.2-0.2,0.3-0.4,0.3-0.7
	c0-0.1,0.1-0.1,0.1-0.2c0.2-0.2,0.3-0.5,0.3-0.8c0,0,0-0.1,0.1-0.1c0.2-0.2,0.3-0.5,0.3-0.8c0-0.1,0.1-0.1,0.1-0.2
	C44.9,42.8,45.1,42.7,45.8,43z"/>
<path class="st3" d="M33.4,60c0.1-0.6,0.1-1.2,0.1-1.8c0.2-0.4,0.1-0.9,0.2-1.3c0.1-0.5,0.1-1,0.2-1.4c0.2-0.1,0.4,0,0.6,0.1
	c1,0.6,1.9,1.2,2.9,1.8c0.2,0.1,0.3,0.2,0.4,0.4c0.1,0.1,0.1,0.2,0.1,0.3c0,0,0,0.1-0.1,0.1c-0.3,0.2-0.7,0.4-1,0.6
	c-0.9,0.5-1.7,1.1-2.4,1.7c-0.3,0.2-0.6,0.4-0.9,0.6c-0.2,0-0.2-0.1-0.2-0.2C33.3,60.5,33.3,60.2,33.4,60z"/>
<path class="st2" d="M58.6,18.1L58.5,18c-0.3,0-0.4-0.2-0.4-0.5c0-0.2-0.1-0.4-0.2-0.6c-0.3-0.9-0.3-1.8-0.6-2.5
	c0.1,0.3,0.2,0.8,0.3,1.3c0,0.1,0.1,0.3,0,0.3c-0.2,0.1-0.2-0.1-0.4-0.1c-0.1-0.1-0.1-0.1-0.2-0.2c-0.1-0.3-0.2-0.6-0.4-0.8
	c-0.1-0.6-0.5-1.2-0.5-1.9c0,0,0,0,0-0.1c-0.3-0.6-0.1-1.2-0.3-1.9c0,0.3,0.2,0.6,0,0.9c-0.1-0.2-0.1-0.4-0.2-0.6
	c0-0.3-0.2-0.5-0.3-0.7c0.1-0.3-0.2-0.6-0.2-0.9c0-0.2-0.1-0.4-0.1-0.5l0,0c-0.2-0.5-0.4-1.1-0.5-1.6c-0.1-0.1-0.1-0.3-0.2-0.4
	c-0.1-0.4-0.2-0.7-0.3-1.1l0,0c0-0.2,0-0.5-0.1-0.7c0-0.1,0-0.2,0.1-0.1c0.4,0.4,0.6,1,0.8,1.4C55,7,55.2,7.4,55.4,7.8
	c0.1,0.4,0.2,0.8,0.3,1.2c0,0.5,0.4,0.8,0.5,1.2c0.2,0.1,0.2,0.3,0.3,0.5c-0.1-0.2-0.1-0.4-0.3-0.5c-0.1-0.3-0.2-0.7-0.4-1
	c0-0.2,0-0.3,0.2-0.2c0.7,1.1,1.3,2.3,1.9,3.5c0.2,0.5,0.3,1.2,0.4,1.8c0.2,0.9,0.5,1.7,0.6,2.6c0,0.3,0.1,0.6,0.2,1
	c0,0.2,0.3,0.4,0.1,0.5C59,18.4,58.8,18.2,58.6,18.1z"/>
<path class="st1" d="M42.6,4.6c0.1,0.4,0.5,0.5,0.6,0.9c-0.2,0-0.3-0.3-0.5-0.5c-0.1-0.2-0.3-0.2-0.4,0c-0.4,1-0.8,2-1.3,2.9
	c0,0.1-0.1,0.2,0,0.4c-0.1,0.1-0.3,0.2-0.3,0.4c-0.1,0.1-0.2,0.2-0.3,0.3c-0.5,0.3-0.9,0.6-1.3,1c-0.3,0.3-0.6,0.5-0.9,0.8
	c-0.7,0.4-1.2,0.9-1.9,1.3c-0.3,0-0.3-0.2-0.1-0.4s0.2-0.4,0.2-0.6c0.2-0.4,0.4-0.8,0.7-1.1c0.3-0.4,0.6-0.8,0.8-1.2
	C38.4,8,39,7.4,39.4,6.6c0.4-0.2,0.7-0.5,1-0.8c0.2-0.1,0.5-0.3,0.7-0.5c0.2-0.1,0.5-0.3,0.7-0.2C42.1,4.9,42.3,4.7,42.6,4.6z"/>
<path class="st6" d="M54.3,28.3c0.5-0.6,1.1-1.1,1.7-1.7c0.2,0.4,0.1,0.9,0.1,1.3c0,0.5-0.1,1-0.1,1.5c0,0.4-0.3,0.8-0.5,1.1
	c-0.4,0.6-0.7,1.1-1.1,1.7c-0.2,0.3-0.3,0.5-0.5,0.7c-0.4,0-0.5-0.4-0.6-0.7s-0.2-0.6-0.4-0.9c-0.1-0.3-0.1-0.7-0.3-1.1
	c-0.2-0.3,0-0.4,0.2-0.5c0,0,0-0.1,0.1-0.1c0.2-0.2,0.4-0.3,0.6-0.4c0.2-0.2,0.4-0.2,0.4-0.6C53.8,28.4,54.1,28.5,54.3,28.3z"/>
<path class="st6" d="M53.1,31.3c0.3,0.5,0.4,1.2,0.7,1.7c-0.1,0.9-0.2,1.8-0.4,2.7c-0.1,0.6-0.2,1.1-0.2,1.7c0,0.3-0.2,0.5-0.5,0.5
	c-0.2-0.1-0.3,0-0.5,0c-0.4,0-0.5-0.1-0.5-0.4c0-0.3,0.1-0.7,0.1-1c0-0.2,0-0.4,0-0.5c0-0.5,0.1-1,0.1-1.5c0-0.6,0.3-1,0.3-1.6
	c0-0.2,0-0.3,0-0.5c0-0.5,0.1-1,0.1-1.5c0-0.2,0.2-0.2,0.3-0.3c0.3,0.1,0.3,0.5,0.4,0.7C53.1,31.1,53,31.2,53.1,31.3z"/>
<path class="st3" d="M42.7,48.8c0.1-0.1,0.1-0.1,0.2-0.2c0.6-0.4,1.1-0.9,1.7-1.3c0.2-0.2,0.5-0.3,0.7-0.5c0.2-0.4,0.6-0.6,1-0.8
	c0.1-0.1,0.2,0,0.1,0.1c-0.3,0.7-0.7,1.5-1,2.2c-0.1,0.1-0.1,0.3-0.2,0.3c-0.2,0.2-0.5,0.1-0.6,0.1c0.1,0,0.2,0,0.4,0
	c0.1,0,0.2,0.1,0.1,0.2c-0.8,0.8-1.6,1.7-2.4,2.5c0-0.2-0.1-0.3-0.1-0.5c-0.1-0.4,0-0.9-0.1-1.3v-0.1c0.1-0.2-0.1-0.4,0-0.6
	C42.4,48.8,42.6,48.8,42.7,48.8z"/>
<path class="st6" d="M41.8,5.1c-0.2,0.1-0.4,0.4-0.7,0.4c-0.1,0.1-0.3,0.1-0.5,0.1c-1-0.5-2.1-0.9-3.1-1.4c-0.2-0.1-0.5-0.3-0.7-0.4
	c-0.1-0.1-0.2-0.2-0.1-0.4c0.3-0.3,0.7-0.6,1.1-0.8c0.1,0,0.1,0,0.2,0c0.2,0,0.4,0.2,0.5,0.4c0.6,0.4,1.2,0.9,1.9,1.3
	C41,4.4,41.4,4.8,41.8,5.1z"/>
<path class="st5" d="M18.9,57.6C18.9,57.6,18.9,57.7,18.9,57.6c0.1,0.3,0.1,0.5,0.2,0.7c0,0.1,0.1,0.1,0,0.2c-0.1,0.1-0.2,0-0.2,0
	c-0.1-0.1-0.2-0.3-0.4-0.4c-0.5-0.5-1-1.1-1.4-1.6c0-0.1-0.1-0.2-0.1-0.3c-0.4-0.6-0.6-1.4-1-2c-0.1-0.1,0-0.2,0.1-0.2s0.1,0,0.1,0
	c-0.1-0.2-0.5-0.3-0.6-0.6c0-0.2-0.2-0.3-0.2-0.4c0-0.1-0.2-0.3,0-0.4c0.3,0,0.6,0.1,0.9,0.1c0.2,0,0.3,0.2,0.4,0.3
	c0.6,0.7,0.9,1.7,1.4,2.5c0.2,0.4,0.5,0.7,0.5,1.2c-0.1,0.4,0.3,0.5,0.4,0.8C18.9,57.5,18.9,57.6,18.9,57.6z"/>
<path class="st7" d="M52.1,35.8c0,0.5-0.1,0.9-0.1,1.4c-0.1,0.4,0,0.5,0.5,0.5c0.1,0,0.3-0.1,0.3,0.1c-0.8,0.2-1.5,0.4-2.3,0.6
	c-0.4,0.1-0.9,0.2-1.3,0.4c-0.6,0.2-1.2,0.5-1.9,0.6c0,0.1-0.1,0.1-0.1,0c-0.2-0.6-0.5-1.1-0.7-1.8c0.2-0.1,0.3,0,0.3,0.1
	c0.1,0.1,0.1,0.3,0.2,0.5c0.2,0.6,0.6,0.7,1.2,0.5c0.6-0.2,1.2-0.4,1.8-0.6c0.3-0.1,0.7-0.2,1-0.3c0.5-0.1,0.6-0.2,0.6-0.7
	c0-0.3,0.1-0.7,0.1-1C51.7,35.9,51.8,35.6,52.1,35.8z"/>
<path class="st8" d="M28.4,8.5c-0.2-0.1-0.3,0-0.5,0.1s-0.3,0.2-0.5,0.1c1.4-0.8,2.9-1.6,4.3-2.4c0.1-0.1,0.2-0.1,0.4-0.1
	c0.1,0.1,0.2-0.1,0.3-0.1c0.2-0.1,0.4-0.2,0.6,0c0.1,0.1,0,0.2,0,0.3c-0.5,0.2-1,0.4-1.4,0.6c-0.8,0.4-1.6,0.8-2.4,1.2
	c-0.1,0.1-0.3,0.2-0.4,0.3S28.6,8.7,28.4,8.5z"/>
<path class="st9" d="M32.6,5.8c0.2-0.2,0.5-0.4,0.8-0.5c0.9-0.5,1.8-1.1,2.7-1.7c0.1,0,0.2,0.1,0.2,0.2c0,0.2,0,0.3-0.2,0.3
	c-0.9,0.6-1.8,1.2-2.7,1.8C33.3,6,33.2,6.1,33,6.1C32.9,6,32.7,6,32.6,5.8z"/>
<path class="st10" d="M41.7,53.9c0.3,0.4,0.5,1,0.7,1.4c0.2-0.1,0-0.3,0.2-0.3c0,0.3,0.1,0.5,0,0.8c0,0.2-0.1,0.3-0.3,0.4
	c-0.7,0.3-1.5,0.7-2.2,1c-0.1,0-0.1-0.1-0.2-0.2c0-0.2,0.1-0.3,0.3-0.4c0.4-0.2,0.9-0.4,1.4-0.5c0.5-0.2,0.7-0.3,0.4-0.8
	c-0.2-0.3-0.2-0.6-0.4-0.9C41.5,54.2,41.5,54,41.7,53.9z"/>
<path class="st11" d="M40,57c0,0.1,0.1,0.1,0.1,0.2c-0.8,0.3-1.6,0.8-2.4,1.1c-0.1-0.1-0.1-0.2,0-0.3l0,0c0.2-0.3,0.5-0.6,0.9-0.7
	c0.3,0,0.5-0.3,0.8-0.4C39.6,56.9,39.8,56.9,40,57z"/>
<path class="st12" d="M15.5,41.7c-0.5,0.4-1.1,0.4-1.7,0.7c-0.9,0.3-1.8,0.6-2.6,1c0-0.1-0.1-0.1-0.1-0.2c0.3,0,0.1-0.3,0.2-0.5
	c0,0.4,0.2,0.4,0.5,0.3c1.2-0.4,2.4-0.9,3.6-1.3H15.5z"/>
<path class="st13" d="M18.5,58.1c0.1-0.1,0.2-0.2,0.3,0c0,0.1,0.1,0.3,0.3,0.3C19,58.1,19,57.9,19,57.6c0.2,0.2,0.3,0.6,0.3,0.8
	c0.1,0.3,0.2,0.5,0.5,0.6c-0.3,0.1-0.6,0-0.8-0.3C18.8,58.5,18.5,58.4,18.5,58.1z"/>
<path class="st14" d="M54,5.3c-0.1,0.3,0.1,0.5,0.1,0.8c-0.2-0.2-0.2-0.5-0.3-0.7c-0.2-0.5-0.1-0.5-0.7-0.4H53l0,0
	c0.5-0.3,0.5-0.3,0.2-0.8c0-0.1,0-0.2-0.1-0.2C53.6,4.3,53.8,4.8,54,5.3z"/>
<path class="st15" d="M38,2.5c-0.5,0.2-0.8,0.5-1.2,0.8c-0.1,0.1-0.1,0.2,0,0.3s0,0.2-0.1,0.2s-0.2,0-0.3-0.1s-0.1-0.2-0.1-0.4
	c0.4-0.2,0.7-0.5,1.1-0.7C37.7,2.5,37.8,2.3,38,2.5z"/>
<path class="st16" d="M55.6,9c-0.1-0.4-0.2-0.8-0.2-1.2C55.7,8.2,55.7,8.7,56,9c-0.1,0-0.1,0.1-0.1,0.2c0,0.1,0,0.2-0.1,0.3
	c-0.1,0-0.1-0.1-0.1-0.2C55.7,9.2,55.7,9.1,55.6,9z"/>
<path class="st17" d="M46.3,46.1c0-0.1-0.1-0.1-0.2,0c-0.3,0.2-0.6,0.5-0.9,0.7c0-0.3,0.3-0.3,0.4-0.5c0.3-0.3,0.7-0.6,1.1-0.9
	C46.6,45.6,46.5,45.8,46.3,46.1z"/>
<path class="st18" d="M37.7,58c0,0.1,0,0.2,0,0.3c-0.3,0.3-0.6,0.3-0.9,0.4C37,58.4,37.3,58.2,37.7,58z"/>
<path class="st19" d="M36.5,3.4c0.1,0.1,0.2,0.2,0.2,0.3s0.1,0.3,0.1,0.4c0,0.2,0,0.3-0.2,0.4c-0.2,0-0.3-0.1-0.3-0.3
	c0-0.1,0-0.2-0.1-0.3c0-0.1-0.1-0.1-0.1-0.2C36.2,3.5,36.3,3.5,36.5,3.4z"/>
<path class="st20" d="M10.5,34c0.1,0.3,0.2,0.4,0.5,0.6c-0.1,0-0.3-0.1-0.4-0.1c0.1,0.3,0.1,0.6,0.2,0.9c-0.3-0.3-0.1-0.7-0.4-0.9
	C10.3,34.3,10.3,34.1,10.5,34z"/>
<path class="st21" d="M58.6,20c-0.2-0.1-0.1-0.2-0.1-0.3c0.2-0.3,0.4-0.7,0.7-1C59.1,19.1,58.8,19.5,58.6,20z"/>
<path class="st22" d="M32.6,5.8C32.8,5.8,32.8,6,33,6c0,0.1,0,0.1-0.1,0.1c-0.4,0-0.7,0.4-1.2,0.4c0.1-0.2,0.3-0.2,0.4-0.3
	C32.3,6,32.4,5.9,32.6,5.8z"/>
<path class="st23" d="M33.4,60c0,0.3-0.1,0.7,0.1,1c-0.1,0.1-0.2,0.2-0.3,0.2C33,61,33.3,61,33.3,60.8C33.2,60.5,33.2,60.2,33.4,60
	C33.4,59.7,33.4,59.9,33.4,60z"/>
<path class="st24" d="M47,39.4L47,39.4c0.1,0.1,0.1,0.3,0.1,0.4C47,40,46.9,40,46.7,39.9c-0.1-0.1-0.3-0.2-0.5-0.4
	C46.6,39.6,47,40,47,39.4z"/>
<path class="st10" d="M30.1,61.8c0.3,0,0.4-0.1,0.2-0.3c-0.1-0.1-0.1-0.2-0.1-0.3c0.2,0.2,0.3,0.4,0.5,0.6c0.1,0.2,0.2,0.2,0.4,0.2
	C30.6,62.2,30.3,62,30.1,61.8z"/>
<path class="st22" d="M9.3,47.2c0.2,0.4,0.6,0.2,0.9,0.3c-0.3,0.1-0.7,0.2-1,0.2C9.2,47.5,9.1,47.3,9.3,47.2z"/>
<path class="st25" d="M27.2,9c0.2,0.4,0.1,0.9,0,1.3C27.1,9.9,27.4,9.5,27.2,9C27.2,9.1,27.2,9,27.2,9z"/>
<path class="st26" d="M25.5,59.7l0.1-0.1c0.4,0,0.6-0.2,0.9-0.5c-0.1,0.2-0.2,0.4-0.3,0.6C25.9,59.6,25.7,59.8,25.5,59.7z"/>
<path class="st21" d="M58.6,18.1c0.2,0,0.3,0.2,0.5,0.2c0.1-0.2-0.1-0.3-0.1-0.5c0-0.1,0.1-0.1,0.1,0c0.1,0.2,0.2,0.5,0.1,0.8
	C59,18.4,58.8,18.3,58.6,18.1z"/>
<path class="st27" d="M59.1,17.8L59.1,17.8c-0.3-0.3-0.3-0.6-0.2-0.9C59,17.1,59.1,17.4,59.1,17.8z"/>
<path class="st28" d="M44.9,48.9c-0.1-0.2-0.3-0.1-0.5-0.1s-0.3,0.1-0.6,0c0.4-0.1,0.8-0.1,1.3-0.2C45.1,48.7,45,48.9,44.9,48.9z"/>
<path class="st29" d="M48.1,42.5c-0.3-0.2-0.4-0.4-0.3-0.8C48,42,48.1,42.2,48.1,42.5z"/>
<path class="st30" d="M25.1,12.3c0,0.3,0.1,0.6,0.2,1c-0.1-0.2-0.2-0.4-0.3-0.5C24.9,12.6,25,12.4,25.1,12.3z"/>
<path class="st22" d="M42.6,55c-0.1-0.4-0.1-0.9-0.1-1.4C42.6,54.1,42.6,54.6,42.6,55z"/>
<path class="st31" d="M42.5,53c-0.1-0.5-0.1-0.9-0.1-1.4C42.5,52.1,42.5,52.5,42.5,53z"/>
<path class="st32" d="M46,4.1c-0.4,0.2-0.8,0.2-1.2,0.2C45.2,4.2,45.6,4.2,46,4.1z"/>
<path class="st7" d="M25.1,25.7c0.1-0.1,0.1-0.3,0.2-0.4c0.1,0.2,0.1,0.4-0.1,0.6C25.1,25.9,25.1,25.8,25.1,25.7z"/>
<path class="st33" d="M9.7,50.6c0.2,0.2,0.6,0.2,0.9,0.4c-0.2,0.1-0.4-0.1-0.6,0.1C9.9,50.9,9.7,50.8,9.7,50.6z"/>
<path class="st34" d="M53.1,3.9c-0.2-0.2-0.5-0.4-0.5-0.8C52.8,3.4,53,3.6,53.1,3.9z"/>
<path class="st14" d="M47.6,41.2C47.6,41.2,47.6,41.1,47.6,41.2C47.7,41.1,47.7,41.2,47.6,41.2z"/>
<path class="st10" d="M47.5,41L47.5,41C47.6,41,47.6,41,47.5,41z"/>
<path class="st5" d="M33.7,55.4c-1.5,0.6-3.2,1-4.7,1.6c-0.1,0-0.2,0.1-0.3,0.1c-0.3,0.2-0.7,0.2-1.1,0.1c-0.1,0-0.1-0.1-0.1-0.1
	c-0.9-0.7-1.6-1.5-2.4-2.3c-0.2-0.2-0.4-0.4-0.7-0.6c-0.1-0.1-0.2-0.2-0.2-0.3c-0.2-0.5-0.7-0.8-1.1-1.1c-0.4-0.6-1-1-1.4-1.5
	c-0.2-0.3-0.5-0.5-0.6-0.9c0-0.1,0-0.1,0-0.2c0,0,0-0.1,0.1-0.1c0.3-0.2,0.6-0.5,0.9-0.8c0.1-0.1,0.2-0.2,0.4-0.3
	c0.3-0.1,0.5-0.4,0.7-0.6c0.3-0.1,0.4-0.4,0.7-0.6c0.1-0.1,0.3-0.2,0.4-0.2c0.2,0.2,0.5,0.1,0.7,0.2c0.4,0.4,1,0.6,1.5,1
	c0.5,0.3,1.1,0.6,1.7,1c0.2,0.3,0.6,0.3,0.9,0.5c0.4,0.4,1,0.6,1.4,1.1c0.6,0.7,1.2,1.3,1.7,2c0.4,0.2,0.5,0.6,0.8,0.8
	C33.2,54.6,33.3,55.1,33.7,55.4C33.7,55.3,33.7,55.4,33.7,55.4L33.7,55.4z"/>
<path class="st3" d="M44.7,43.6L44.7,43.6c-0.2,0.3-0.2,0.7-0.4,0.9l0,0c-0.2,0.3-0.2,0.6-0.3,0.9c0,0,0,0-0.1,0.1
	c-0.2,0.3-0.2,0.6-0.4,0.9l0,0c-0.2,0.3-0.2,0.7-0.4,0.9l0,0c-0.2,0.3-0.2,0.7-0.4,0.9l0,0c-0.1,0.3-0.2,0.6-0.3,0.9
	c-0.3,0-0.4-0.3-0.5-0.5c-0.3-0.4-0.6-0.8-0.8-1.2c-0.4-0.7-0.8-1.4-1.4-1.9c-0.6-0.4-1.3-0.7-1.9-1.1c-1-0.5-1.9-1.1-2.9-1.5
	l-0.1-0.1c-0.2-0.3-0.7-0.3-0.9-0.5c-0.3-0.1-0.5-0.4-0.8-0.3l0,0c0-0.3,0.2-0.1,0.4-0.2c0,0-0.1-0.1-0.1,0l0,0
	c-0.1,0-0.3,0-0.3-0.2c0,0,0,0,0.1,0c1-0.1,2-0.3,3-0.5c1-0.1,1.9-0.4,2.8-0.5c1.2-0.2,2.4-0.4,3.6-0.7c0.4-0.1,0.6,0,0.8,0.3
	c0.5,0.7,1,1.4,1.5,2.1c0.1,0.2,0.2,0.3,0.3,0.5C45.1,43,44.9,43,44.8,43c-0.3,0-0.6-0.1-0.9-0.1c0.4-0.1,0.7,0.1,1,0.1
	c0.1,0,0.2,0,0.3,0.2C44.9,43.1,44.9,43.3,44.7,43.6z"/>
<path class="st1" d="M45.2,35.3c-0.4,0-0.7,0.2-1,0.3c-0.4,0-0.7,0.3-1,0.2c-0.4-0.1-0.5,0.1-0.7,0.3c-0.3-0.1-0.6-0.1-0.9,0
	c-1-0.1-2-0.2-3-0.2s-2-0.2-3-0.2c-0.2,0-0.4,0-0.6-0.1c0.2-0.7,0.6-1.3,0.8-1.9c0.2-0.3,0.2-0.6,0.4-0.8l0,0
	c0.2-0.3,0.2-0.7,0.4-0.9c0,0,0,0,0.1-0.1c0.1-0.2,0.3-0.3,0.6-0.3c0.2,0.3,0.5,0.1,0.8,0.2c0.4,0,0.8,0.2,1.3,0.3
	c0.8,0.2,1.7,0.3,2.5,0.5c0.5,0,1,0.2,1.5,0.3c0.2,0.1,0.5,0.1,0.8,0.2c0.2,0.2,0.5,0,0.8,0.2l0,0c0.2,0.1,0.5,0.1,0.7,0.1
	c0.1,0,0.2,0,0.3,0c0.3-0.3,0.6-0.4,0.9-0.6c0.2-0.1,0.3-0.3,0.6-0.4c0.6-0.2,1.2-0.5,1.8-0.8c0.4-0.2,0.8-0.5,1.2-0.6
	c0.2,0.1,0.4,0.1,0.5,0.2c0.1,0.2-0.1,0.4-0.2,0.6c-0.5,0.3-1,0.7-1.5,1c-0.3,0.1-0.5,0.3-0.7,0.5c-0.2,0.1-0.3,0.3-0.5,0.4
	c-0.3,0.1-0.6,0.2-0.8,0.6c-0.5,0.3-1,0.7-1.5,1C45.6,35.3,45.4,35.2,45.2,35.3z"/>
<path class="st3" d="M33.7,55.4L33.7,55.4c0.6-0.5,0.9-1.1,1.3-1.6c0.6-0.7,1.1-1.4,1.6-2.1c0.3-0.4,0.7-0.1,1.1-0.2
	c0.5,0.1,0.9,0,1.4,0c0.4,0,0.9,0.1,1.3,0.1c0.1-0.1,0.1,0,0.2,0.1c0.2,0.2,0.3,0.5,0.4,0.7c0.2,0.5,0.4,1.1,0.7,1.6
	c0.1,0.6,0.4,1.1,0.6,1.6c0.2,0.4,0.2,0.4-0.2,0.7c-0.7,0.3-1.4,0.5-2.1,0.9c-0.4,0.1-0.7,0.2-1,0.5c-0.1,0.1-0.2,0.1-0.3,0
	C38.4,57.9,38,58,37.6,58c-0.8-0.5-1.6-1.1-2.4-1.5C34.7,56,34.3,55.6,33.7,55.4C33.8,55.4,33.7,55.4,33.7,55.4z"/>
<path class="st3" d="M24.3,45.7c0,0.2,0,0.4,0,0.7c-0.1,0.3,0,0.6,0,0.9c0,0.3-0.1,0.3-0.3,0.2c-0.1,0-0.2-0.1-0.3-0.2
	c-0.4-0.6-0.8-1.1-1.2-1.6c-0.2-0.4-0.4-0.8-0.8-1c-0.3-0.4-0.5-0.8-0.9-1.2c-0.2-0.6-0.7-1-1.2-1.5c-0.2-0.4-0.5-0.8-0.7-1.3
	c0-0.1,0-0.2,0-0.3c0.3-0.2,0.6-0.2,0.9-0.3c0.4,0,0.7,0,1.1-0.1c0.3,0,0.6-0.1,0.9-0.1c0.4,0,0.7,0,1.1-0.1H23c0.4,0,0.8,0,1.1,0.2
	c0,1.2,0.1,2.3,0.1,3.5c0,0.1,0,0.2,0,0.3C24.3,44.4,24.2,45.1,24.3,45.7z"/>
<path class="st5" d="M21,43.4c0.4,0.3,0.5,0.8,0.8,1.1c0.2,0.4,0.6,0.7,0.8,1.1c0.4,0.3,0.6,0.8,0.9,1.2c0.1,0.1,0.2,0.2,0.3,0.3
	c0.1,0.2,0.3,0.4,0.5,0.6c0,0,0,0,0,0.1s-0.1,0.1-0.2,0.2c-0.4,0.1-0.6,0.6-1,0.8c-0.2,0.3-0.5,0.4-0.7,0.7
	c-0.1,0.1-0.2,0.2-0.4,0.3c-0.3,0.3-0.6,0.5-0.9,0.8H21c-0.2,0-0.3-0.2-0.3-0.3c-0.1-0.4-0.3-0.9-0.3-1.3c-0.1-0.3-0.1-0.7-0.3-1
	c-0.1-0.5-0.2-1-0.3-1.5c-0.2-0.7-0.3-1.5-0.5-2.2c-0.1-0.3-0.1-0.7-0.2-1c-0.1-0.6-0.3-1.3-0.5-1.9c0-0.1-0.1-0.2-0.1-0.3
	c0.1-0.4,0.3-0.3,0.5-0.2c0.2,0.4,0.6,0.7,0.7,1.2C20.2,42.4,20.7,42.8,21,43.4z"/>
<path class="st3" d="M19.8,40.4c-0.3-0.1-0.5,0.1-0.7,0.1c-0.1,0-0.1,0-0.1-0.1s0-0.1,0.1-0.1c0.9-1.9,1.7-3.8,2.6-5.6
	c0.1-0.2,0.2-0.5,0.3-0.7c0.2-0.1,0.1,0.1,0.2,0.2c0.1,0.4,0.3,0.8,0.4,1.2c0,0.3,0.2,0.6,0.3,0.9c0.2,0.3,0.2,0.7,0.4,1
	c0.2,0.7,0.4,1.4,0.7,2c0.1,0.1,0.2,0.2,0.1,0.4c-0.1,0.1-0.1,0.2-0.3,0.2c-0.3,0-0.5,0.1-0.8,0.1c0,0,0,0-0.1,0
	c-0.4,0-0.8,0-1.2,0.2c-0.3-0.1-0.5,0.1-0.7,0.1C20.6,40.3,20.2,40.3,19.8,40.4z"/>
<path class="st0" d="M22.6,30.4c0.2,0.1,0.4,0.3,0.6,0.4c0.3,0.2,0.6,0.3,0.9,0.5c0.6,0.5,1.3,0.9,1.9,1.3c0.1,0,0.1,0.1,0.2,0.1
	c0,0.2-0.2,0.2-0.3,0.2c-0.5,0.1-1,0.3-1.5,0.3c0,0,0,0-0.1,0c-0.6,0.2-1.2,0.3-1.8,0.4c-0.1,0-0.2,0.1-0.3,0.1
	c-0.3-0.1-0.2-0.3-0.2-0.5c0.1-0.2,0.1-0.4,0.1-0.7c-0.1,0.4-0.2,0.8-0.1,1.1c0,0.1,0,0.1-0.1,0.1c-1.4-0.3-2.7-1-4.1-1.3
	c-0.1-0.1,0-0.1,0.1-0.2c1-0.5,2.1-0.9,3.1-1.5c0.3-0.3,0.6-0.4,1-0.4l0.1-0.1h0.1C22.3,30.4,22.5,30.2,22.6,30.4z"/>
<path class="st9" d="M29,30.6C29,30.6,28.9,30.5,29,30.6c0-0.2,0.1-0.2,0.2-0.2c0.6,0.2,1.2,0.2,1.8,0.3c0.2,0,0.4,0,0.6,0.2
	c-0.7,0-1.4-0.1-2.1-0.2c0.2,0.3,0.5,0.4,0.6,0.7c-0.3-0.2-0.5-0.4-0.8-0.5l0,0C29.3,30.7,29.2,30.6,29,30.6z"/>
<path class="st35" d="M32.9,41.8c-0.1,0.2-0.3,0.5-0.5,0c-0.1-0.3-0.5-0.5-0.2-0.8c0.1-0.1,0-0.2,0.1-0.4c0,0.3,0.4,0.4,0.3,0.8
	C32.8,41.5,32.8,41.7,32.9,41.8L32.9,41.8z"/>
<path class="st36" d="M39.6,45.3c0.2,0,0.4-0.1,0.7-0.1c-0.4,0.1-0.4,0.3-0.1,0.6c0.3,0.3,0.5,0.6,0.7,1c0.1,0.2,0.2,0.3,0.2,0.5
	C40.6,46.6,40.1,46,39.6,45.3z"/>
<path class="st37" d="M40.1,50.9c-0.5-0.6-1-1.2-1.5-1.8C39.2,49.6,39.7,50.2,40.1,50.9z"/>
<path class="st38" d="M31.9,40c-0.2-0.8-0.4-1.5-0.7-2.3h0.1c0.2,0.8,0.4,1.5,0.7,2.3C32,40,32,40,31.9,40z"/>
<path class="st39" d="M36.8,46.8c0.4,0.5,0.8,1,1.2,1.5C37.5,47.8,37.2,47.3,36.8,46.8L36.8,46.8z"/>
<path class="st40" d="M24.3,45.7c-0.1-0.7-0.2-1.3-0.1-2C24.4,44.4,24.3,45.1,24.3,45.7z"/>
<path class="st18" d="M24.4,47.7c-0.3-0.1-0.4-0.3-0.5-0.6c0.1,0.1,0.2,0.2,0.3,0.3c0.2-0.3,0-0.7,0.1-1
	C24.4,46.8,24.4,47.3,24.4,47.7z"/>
<path class="st41" d="M25.1,47.1c0.4-0.4,0.9-0.7,1.3-1.1C26,46.5,25.6,46.8,25.1,47.1C25.1,47.2,25.1,47.1,25.1,47.1z"/>
<path class="st36" d="M24.4,33.3c0.4-0.2,0.9-0.2,1.3-0.3c0.2,0,0.3-0.1,0.5-0.2c0.1,0,0.1,0,0.2,0.1c0,0,0,0,0,0.1l0,0
	c-0.5,0.1-1.1,0.2-1.6,0.3C24.6,33.3,24.5,33.4,24.4,33.3z"/>
<path class="st39" d="M31.1,42.5c-0.4,0.4-0.9,0.7-1.3,1.1c0,0,0-0.1-0.1-0.1C30.2,43.2,30.6,42.8,31.1,42.5
	C31.1,42.4,31.1,42.5,31.1,42.5z"/>
<path class="st13" d="M22.5,33.7c0.6-0.2,1.2-0.3,1.8-0.4C23.7,33.6,23.1,33.6,22.5,33.7z"/>
<path class="st42" d="M33.4,52.2c0.2,0.6,0.2,1.1,0.2,1.7C33.5,53.7,33.4,53.1,33.4,52.2z"/>
<path class="st43" d="M33.1,48.7C33,48.1,33,47.5,32.9,47H33c0.1,0.6,0.1,1.1,0.2,1.7C33.2,48.6,33.1,48.7,33.1,48.7z"/>
<path class="st41" d="M26.3,32.9L26.3,32.9c0.3-0.4,0.6-0.8,1.1-0.9C27.1,32.4,26.6,32.6,26.3,32.9C26.4,33,26.3,33,26.3,32.9
	C26.3,33,26.3,32.9,26.3,32.9z"/>
<path class="st29" d="M30.2,34.1c0.2,0.4,0.3,0.9,0.4,1.4C30.4,35,30.3,34.5,30.2,34.1z"/>
<path class="st43" d="M34.5,46.4c-0.2-0.4-0.4-0.9-0.6-1.3C34.3,45.5,34.4,45.9,34.5,46.4z"/>
<path class="st44" d="M41.9,48.5c0.2,0.1,0.3,0.3,0.5,0.4c0.1,0,0.1,0,0.1,0.1c-0.2,0.2,0,0.4-0.2,0.6c-0.1-0.3-0.1-0.7-0.4-0.9
	C41.9,48.6,41.8,48.6,41.9,48.5z"/>
<path class="st45" d="M29.3,30.8c0.1,0.4,0.3,0.9,0.3,1.3c-0.1-0.4-0.2-0.8-0.3-1.1C29.2,30.9,29.2,30.9,29.3,30.8L29.3,30.8z"/>
<path class="st45" d="M32.7,44c-0.1-0.5-0.2-0.9-0.1-1.4C32.6,43.1,32.7,43.5,32.7,44z"/>
<path class="st43" d="M32.9,45.3c0,0.5,0.1,0.9,0.1,1.4C32.8,46.2,32.8,45.7,32.9,45.3z"/>
<path class="st15" d="M41.6,36.1c0.3-0.1,0.6-0.2,0.9,0c0.1,0,0.1,0.1,0.1,0.1c-0.1,0.3-0.2,0.1-0.3,0
	C42.1,35.9,41.8,36.3,41.6,36.1z"/>
<path class="st39" d="M35.1,44.6c0.3,0.3,0.5,0.6,0.8,0.9c0,0-0.1,0-0.1,0.1C35.5,45.3,35.3,45,35.1,44.6
	C35,44.7,35.1,44.6,35.1,44.6z"/>
<path class="st46" d="M23,40c0.3-0.2,0.8-0.1,1.1-0.3c0,0.1,0.4,0.1,0,0.3C23.7,39.9,23.4,40,23,40z"/>
<path class="st17" d="M42.3,49.7c0.2,0.4,0.1,0.8,0.1,1.3C42.2,50.5,42.3,50.1,42.3,49.7z"/>
<path class="st47" d="M24.2,47.9c0.1-0.1,0.1-0.1,0.2-0.2c0.2,0.1,0.4,0.1,0.5,0.3c-0.1,0-0.2,0-0.3,0c-0.1,0.2,0.1,0.3,0,0.5
	C24.4,48.3,24.4,48,24.2,47.9z"/>
<path class="st46" d="M39.1,51.5c-0.5,0.1-0.9,0.1-1.4,0C38.2,51.4,38.7,51.4,39.1,51.5z"/>
<path class="st48" d="M22.1,33.2c0,0.2,0,0.4,0.1,0.6c0,0.1,0,0.2-0.1,0.3C22,34,22,34,21.9,33.9c0-0.1,0-0.1,0-0.2
	c0,0,0-0.1,0.1-0.1C22,33.5,21.9,33.3,22.1,33.2z"/>
<path class="st49" d="M40.5,51.7c0-0.1-0.1-0.1-0.1-0.2c0-0.4,0.3-0.3,0.5-0.4c-0.1,0.2-0.1,0.3-0.2,0.5
	C40.7,51.7,40.6,51.8,40.5,51.7z"/>
<path class="st50" d="M32.9,41.8c-0.1-0.1-0.2-0.2-0.2-0.3c0.1-0.1,0.2-0.1,0.3-0.1c0.1,0.1,0.2,0.2,0.3,0.2
	C33.1,41.6,32.9,41.6,32.9,41.8z"/>
<path class="st51" d="M29.2,44c-0.2,0.1-0.4,0.5-0.7,0.5C28.8,44.3,28.9,44,29.2,44z"/>
<path class="st52" d="M23.2,37.2c-0.3-0.3-0.3-0.7-0.5-1c0-0.1,0-0.1,0.1,0C23.1,36.5,23.1,36.9,23.2,37.2z"/>
<path class="st49" d="M27.6,45.1c-0.1,0.3-0.3,0.5-0.6,0.5C27.2,45.5,27.4,45.3,27.6,45.1z"/>
<path class="st39" d="M29.3,37c0.3,0.2,0.4,0.5,0.6,0.8C29.6,37.6,29.4,37.3,29.3,37L29.3,37z"/>
<path class="st53" d="M29,50.5c-0.4-0.1-0.7-0.2-0.9-0.5C28.4,50.1,28.7,50.2,29,50.5z"/>
<path class="st49" d="M40.5,50.2c0.2,0.3,0.1,0.6,0.2,0.8C40.4,50.8,40.5,50.4,40.5,50.2z"/>
<path class="st10" d="M40.5,51.7c0.1,0,0.1-0.1,0.2-0.1c0.1,0.2,0.3,0.4,0.3,0.7C40.9,52.1,40.7,51.9,40.5,51.7z"/>
<path class="st54" d="M32.9,54.4c-0.4-0.1-0.5-0.5-0.8-0.8C32.5,53.7,32.6,54.1,32.9,54.4z"/>
<path class="st55" d="M31.8,40.7c-0.2-0.2-0.3-0.4-0.5-0.6C31.6,40.2,31.8,40.4,31.8,40.7z"/>
<path class="st38" d="M27.3,34.3c0.2,0.2,0.3,0.4,0.5,0.6C27.5,34.8,27.4,34.6,27.3,34.3z"/>
<path class="st45" d="M40.6,37.1c-0.2,0.3-0.6,0.4-0.9,0.5C39.9,37.2,40.3,37.2,40.6,37.1z"/>
<path class="st52" d="M33.7,42.1c0.3,0.2,0.7,0.2,0.9,0.5C34.4,42.4,33.9,42.5,33.7,42.1z"/>
<path class="st43" d="M29.2,37.1c-0.2-0.3-0.4-0.4-0.5-0.8C28.9,36.6,29.2,36.7,29.2,37.1C29.3,37,29.2,37.1,29.2,37.1z"/>
<path class="st39" d="M30.1,38.2c0.2,0.1,0.4,0.3,0.5,0.6C30.3,38.6,30.2,38.4,30.1,38.2z"/>
<path class="st52" d="M22.8,36.2L22.8,36.2L22.8,36.2c-0.2-0.3-0.4-0.6-0.3-0.9C22.7,35.6,22.8,35.9,22.8,36.2z"/>
<path class="st55" d="M41.7,36.5c-0.2,0.3-0.6,0.4-0.9,0.5C41.1,36.7,41.4,36.6,41.7,36.5z"/>
<path class="st55" d="M34.6,44.1c-0.1-0.2-0.3-0.4-0.5-0.6C34.5,43.7,34.5,43.7,34.6,44.1z"/>
<path class="st6" d="M38.2,28c-0.2-0.1-0.4-0.1-0.6-0.2c-0.7-0.3-0.7-0.3-0.6-1c-0.1-0.2-0.2-0.5-0.1-0.7c0.5-1.5,0.7-3.1,1.1-4.7
	c0.1-0.2,0.3-0.4,0.6-0.3c0.5,0.2,0.9,0.6,1.4,0.9c0,0,0.1,0,0.1,0.1c0.3,0.2,0.6,0.3,0.9,0.5c0,0,0.1,0,0.1,0.1
	c0.3,0.3,0.6,0.5,0.9,0.6c0.1,0.1,0.1,0.1,0.2,0.1c0.2,0.2,0.5,0.4,0.8,0.5c0.1,0,0.1,0.1,0.2,0.1c0.3,0.3,0.6,0.5,0.9,0.6
	c0.1,0.1,0.1,0.1,0.2,0.1c0.2,0.2,0.5,0.4,0.8,0.5c0.1,0.1,0.1,0.1,0.2,0.2c0.2,0.2,0.5,0.4,0.8,0.5c0.1,0.1,0.3,0.3,0.5,0.4
	s0.3,0.3,0.4,0.5c-0.1,0.5-0.5,0.7-0.8,1c-0.1,0.1-0.3,0.3-0.4,0.4c-0.2,0.2-0.4,0.4-0.6,0.7c-0.4,0.3-0.8,0.8-1.2,1.1
	c-0.3,0-0.6,0-0.8-0.2l0,0c-0.2-0.2-0.5-0.1-0.8-0.3c-0.5-0.2-0.9-0.3-1.4-0.5c-0.1,0-0.3-0.1-0.4-0.2c-0.3,0-0.6-0.1-0.8-0.2
	c-0.3-0.1-0.6-0.1-0.8-0.3C38.7,28.2,38.4,28.1,38.2,28z"/>
<path class="st2" d="M38.3,21.4c-0.3,0.9-0.5,1.9-0.7,2.8c-0.2,0.8-0.4,1.7-0.6,2.5c-0.4,0.6-0.4,0.7-1.1,0.3c-1.3-0.7-2.7-1.2-4-2
	c-0.2-0.1-0.4-0.1-0.6-0.2c-0.1,0-0.2,0-0.2-0.1s0.1-0.2,0.2-0.3c0.1-0.1,0.2-0.1,0.2-0.2c-0.1,0-0.1,0.1-0.2,0.1s-0.2,0.2-0.3,0.1
	c-0.1-0.1-0.1-0.2-0.1-0.3c0-0.2-0.1-0.3,0-0.4c0-0.5-0.1-0.9-0.1-1.3c-0.2-0.3-0.1-0.6-0.2-0.9c0-0.3-0.1-0.7-0.1-1
	c-0.1-0.4,0-0.7-0.1-1.1c0-0.2,0-0.3,0.2-0.3s0.4-0.2,0.6-0.2c0.5,0.2,0.9,0.3,1.5,0.4s1.1,0.3,1.7,0.4c1,0.2,2,0.5,3.1,0.7
	c0.2,0,0.4,0.1,0.6,0.2c0.3,0.1,0.3,0.3,0,0.5c-0.1,0.1-0.3,0.2-0.4,0.2c0.1,0,0.2-0.1,0.4-0.2c0.1-0.1,0.2-0.2,0.4-0.1
	C38.4,21.1,38.2,21.3,38.3,21.4z"/>
<path class="st2" d="M28.4,8.5c0.3-0.1,0.4-0.4,0.7-0.5c1.1-0.5,2.3-1.1,3.4-1.7c0.2-0.1,0.3-0.1,0.4,0.1c0.3-0.1,0.4,0.1,0.4,0.3
	c0.1,0.5,0.4,1,0.6,1.5C34,8.5,34,8.8,34.2,9c0,0,0,0.1,0.1,0.1c0.1,0.4,0.2,0.7,0.3,1.1c0.2,0.4,0.3,0.8,0.6,1.1
	c0.1,0.3,0.1,0.7,0.2,1c0.1,0.4-0.1,0.6-0.4,0.6c-0.2,0.1-0.4,0.2-0.7,0.2h-0.1c-0.5,0-0.9,0-1.3,0.3c-0.4,0.2-0.8,0.2-1.2,0.3
	c-0.7,0-1.1,0.3-1.5,0.3h-0.1c-0.3,0-0.6,0-0.8,0c-0.2,0-0.3,0.1-0.4-0.1c0-0.9,0-1.8-0.2-2.8c0-0.4-0.1-0.9-0.1-1.4l0,0
	c0-0.3,0-0.6-0.1-0.9C28.4,8.8,28.3,8.7,28.4,8.5L28.4,8.5z"/>
<path class="st2" d="M37.2,20.7c-1-0.2-2.1-0.5-3.1-0.7c-0.4-0.2-0.8-0.2-1.2-0.3c-0.2,0-0.4-0.1-0.5-0.1c-0.5,0-1-0.1-1.4-0.3
	c-0.2-0.1-0.4,0-0.5-0.1c-0.2-0.2-0.2-0.4-0.2-0.7c0-0.7,0.2-1.5,0.3-2.2l0,0c0-0.2,0.2-0.3,0.4-0.3c0.2,0,0.3-0.1,0.4-0.1h0.1
	c0.4,0.1,0.8,0,1.2,0h0.1c0.4,0.1,0.8,0,1.3,0h0.1c0.4,0.1,0.8,0.1,1.3,0c0.3,0,0.6,0,0.8,0.2l0.1,0.1c0.1,0.4,0.3,0.8,0.5,1.1
	c0.1,0.1,0.1,0.3,0.2,0.4c0.1,0.4,0.2,0.7,0.5,1c0.1,0.2,0.2,0.4,0.2,0.5c0.1,0.4,0.3,0.7,0.4,1v0.1c0,0.5,0,0.5-0.4,0.5
	C37.6,20.8,37.4,20.8,37.2,20.7z"/>
<path class="st2" d="M31.5,16.1L31.5,16.1c-0.2-0.1-0.4,0.1-0.6,0c0.1-0.4,0.5-0.5,0.7-0.8c0.1,0,0.2-0.1,0.3-0.2
	c-0.1,0.1-0.2,0.1-0.3,0.2c-0.3,0.2-0.6,0.4-0.8,0.7c-0.1,0.1-0.2,0.1-0.3,0l0,0c-0.3-0.3-0.7-0.6-0.9-1c-0.1-0.1-0.2-0.2-0.2-0.2
	c-0.1-0.2-0.4-0.3-0.5-0.5S28.8,14,29,14c0.3-0.1,0.7-0.1,1-0.2l0,0c0.5-0.1,1-0.2,1.4-0.3s0.7-0.2,1.1-0.2c0.5-0.1,1-0.2,1.4-0.3
	l0,0c0.2,0,0.4-0.1,0.6-0.1c0.1,0,0.2,0,0.3,0c0,0,0,0.2,0.1,0.1c0.3-0.4,0.4-0.3,0.6,0.1c0.1,0.4,0.1,0.8,0.3,1.2
	c0,0.3,0.1,0.7,0.2,1c-0.1,0.5-0.2,0.5-0.6,0.5c-0.4,0-0.9,0-1.3,0.1l0,0c-0.5,0-0.9,0.1-1.4,0.1l0,0C32.4,16.1,31.9,16,31.5,16.1z"
	/>
<path class="st2" d="M50.4,31c-0.4,0.2-0.8,0.4-1.2,0.6c-0.6,0.3-1.1,0.6-1.7,0.8c-0.2,0.1-0.3,0.2-0.5,0.3
	c-0.4,0.1-0.8,0.3-1.1,0.5h-0.1c0,0,0,0,0-0.1c-0.6-1-1.2-2-1.8-3c0.1-0.3,0.4-0.3,0.6-0.3c1.6,0,3.2,0,4.8,0c0.8,0,1.5,0,2.3,0
	c0.2,0,0.3,0,0.4,0.1c0.2,0.3,0,0.4-0.2,0.4c-0.3,0.1-0.5,0.3-0.8,0.5C50.9,31,50.6,30.9,50.4,31z"/>
<path class="st16" d="M26.9,18c0.1,0.2,0.3,0,0.5,0.1c-0.4,0-0.4,0.3-0.5,0.4c-0.2,0.3,0.3,0.4,0.3,0.7c-0.1,0-0.2-0.1-0.3-0.1
	c0.4,1.2,0.8,2.3,1,3.6c-0.3-0.8-0.5-1.6-0.8-2.4c0,0,0,0-0.1,0c0,0.1,0,0.2,0,0.5c-0.4-0.7-0.5-1.4-0.6-2.1
	c-0.1-0.6,0.2-1.2,0.2-1.8c0.3,0.2,0.2,0.5,0.2,0.8C27,17.8,26.9,17.9,26.9,18z"/>
<path class="st32" d="M49.4,30c-1.6,0-3.1,0-4.7,0c-0.2,0-0.5,0-0.7,0.2c-0.3-0.3-0.5,0-0.8,0c-0.2,0-0.3,0.1-0.5,0.1
	c-0.1,0-0.1,0,0-0.1c0.2-0.1,0.5-0.1,0.7-0.2c-0.1-0.1-0.1-0.2-0.2-0.2c0.1,0,0.3,0.2,0.4-0.1c0-0.1,0.1-0.1,0.1,0
	c0.1,0.1,0.2,0.1,0.3,0.1c0.4-0.1,0.7-0.1,1.1-0.1c1.2,0,2.4,0,3.6,0c0.2,0,0.5,0,0.7,0.2C49.4,29.9,49.4,29.9,49.4,30z"/>
<path class="st56" d="M30.8,23.8c0.1,0.2,0.1,0.5,0.2,0.7c0.3-0.1,0.5-0.4,0.9-0.4c-0.1,0.2-0.3,0.2-0.5,0.3
	c-0.1,0.1-0.3,0.1-0.3,0.2s0.2,0.1,0.3,0.2c0.2,0.1,0.3,0.1,0.5,0.2c-0.4,0-0.7-0.2-1.1-0.3h-0.1c0.1-0.4-0.4-0.6-0.4-1
	c0.2,0.1,0.2,0.3,0.4,0.4C30.8,24.1,30.7,23.9,30.8,23.8z"/>
<path class="st57" d="M37.3,31.5c-0.3,0.1-0.1,0.2,0.1,0.4c-0.3-0.1-0.5-0.3-0.7-0.1c-0.1-0.3-0.5-0.2-0.7-0.4
	C36.7,31.1,36.9,31.2,37.3,31.5z"/>
<path class="st16" d="M27.8,23.8c-0.3-0.9-0.4-1.9-0.6-2.8C27.5,21.9,27.6,22.9,27.8,23.8z"/>
<path class="st58" d="M28.8,28.8c-0.3-0.8-0.5-1.6-0.6-2.5h0.1C28.5,27.1,28.7,27.9,28.8,28.8z"/>
<path class="st21" d="M26.9,18c-0.2-0.3,0-0.8-0.2-1.1c0-0.2,0-0.4,0-0.6c0.2,0.2,0.2,0.4,0.2,0.5C26.9,17.2,27.3,17.7,26.9,18z"/>
<path class="st59" d="M30.5,19.2c0.2,0,0.4,0,0.5,0.1c-0.7,0-0.7,0-0.7,0.7c0,0.2,0.1,0.4,0.1,0.7c0,0.1,0,0-0.1,0
	c-0.1-0.3-0.1-0.7-0.1-1s-0.1-0.6-0.5-0.5c-0.1,0-0.1,0-0.2-0.1l0,0c0.2,0,0.6,0.1,0.7-0.3C30.3,18.9,30.2,19.2,30.5,19.2z"/>
<path class="st58" d="M29.2,30.4c-0.1,0-0.1,0.1-0.2,0.1c0-0.1-0.1-0.3-0.1-0.4c0.1-0.3-0.1-0.7-0.1-1.1
	C29.1,29.5,29.3,29.9,29.2,30.4z"/>
<path class="st32" d="M30.6,16.3c0,0.7-0.1,1.5-0.3,2.2c-0.2-0.4,0-0.7,0-1.1C30.4,17.1,30.4,16.7,30.6,16.3z"/>
<path class="st60" d="M30.1,13.8c-0.3,0.3-0.8,0.2-1.1,0.3c0,0.3,0.4,0.4,0.5,0.7c-0.3-0.1-0.5-0.3-0.7-0.6c-0.1-0.1-0.1-0.2,0-0.3
	C29.2,14,29.6,13.8,30.1,13.8z"/>
<path class="st61" d="M28.8,25.4c-0.2-0.7-0.4-1.4-0.6-2c0.3,0.6,0.5,1.3,0.7,2C28.9,25.3,28.8,25.4,28.8,25.4z"/>
<path class="st57" d="M27.4,27.8c-0.3,0.1-0.5,0.2-0.8,0.4C26.8,28,27,27.9,27.4,27.8c-0.2-0.2-0.5-0.2-0.5-0.4H27
	c0.4,0.2,0.4,0.2,0.4-0.3C27.6,27.3,27.6,27.5,27.4,27.8z"/>
<path class="st59" d="M45.8,33.2c0.2-0.1,0.5-0.2,0.7-0.3c0.1-0.1,0.3-0.1,0.4-0.1c-0.2,0.1-0.4,0.2-0.6,0.3c-0.5,0.3-0.9,0.2-1.4,0
	C45.2,33.1,45.5,33.2,45.8,33.2z"/>
<path class="st62" d="M28.4,8.5c0.1,0.4,0.2,0.9,0.1,1.4c-0.1-0.3-0.1-0.5-0.2-0.8C28.2,8.9,28.2,8.7,28.4,8.5z"/>
<path class="st63" d="M27,22.8c0-0.6-0.1-1.1-0.1-1.7c0.2,0.5,0.2,1.1,0.3,1.7C27.1,22.8,27,22.8,27,22.8z"/>
<path class="st57" d="M27.2,24.9c0.2,0.6,0.1,1.2,0.1,1.8C27.3,26.1,27.1,25.5,27.2,24.9L27.2,24.9z"/>
<path class="st16" d="M30.3,20.6C30.4,20.6,30.4,20.6,30.3,20.6c0.2,0.6,0.2,1.2,0.3,1.8c-0.1-0.1-0.2-0.2-0.2-0.4
	C30.4,21.6,30.4,21.1,30.3,20.6z"/>
<path class="st59" d="M29.6,26.5c-0.8,0.1-0.4-0.6-0.7-0.9C29.2,25.9,29.2,26.3,29.6,26.5z"/>
<path class="st30" d="M25.7,14.5c0.1,0.4,0.2,0.9,0.4,1.3C25.7,15.4,25.6,14.9,25.7,14.5z"/>
<path class="st16" d="M27.2,24.9c-0.2-0.6-0.1-1.2-0.2-1.8C27.2,23.7,27.3,24.3,27.2,24.9L27.2,24.9z"/>
<path class="st64" d="M27,14.1c-0.1-0.4,0-0.8,0.1-1.3C27.2,13.2,27.1,13.7,27,14.1L27,14.1z"/>
<path class="st57" d="M27.7,12.3c0.1,0.5-0.1,0.9-0.2,1.3C27.5,13.2,27.6,12.7,27.7,12.3L27.7,12.3z"/>
<path class="st25" d="M28,10.8c0-0.4,0.1-0.8,0.2-1.3C28.2,10,28.2,10.4,28,10.8L28,10.8z"/>
<path class="st25" d="M27,14.1c0,0.4,0,0.8,0,1.3h-0.1C26.8,14.9,26.9,14.5,27,14.1L27,14.1z"/>
<path class="st65" d="M29.7,15.1c0.3,0.3,0.7,0.6,0.9,1C30.2,15.8,29.8,15.6,29.7,15.1z"/>
<path class="st62" d="M28.5,9.9c0.1,0.4,0.1,0.9,0.1,1.4C28.5,10.8,28.4,10.3,28.5,9.9z"/>
<path class="st7" d="M28,10.8c0,0.5-0.1,1-0.3,1.5l0,0C27.7,11.8,27.9,11.3,28,10.8L28,10.8z"/>
<path class="st7" d="M43.4,32.8c-0.5,0-1-0.1-1.5-0.3C42.4,32.5,42.9,32.6,43.4,32.8z"/>
<path class="st57" d="M39.4,32c-0.4,0-0.8-0.2-1.3-0.3C38.5,31.7,38.9,31.9,39.4,32L39.4,32L39.4,32z"/>
<path class="st66" d="M28.1,25.1c-0.2-0.3-0.2-0.6-0.3-0.9C28.1,24.4,27.9,24.8,28.1,25.1z"/>
<path class="st67" d="M33.4,29.1c0.2,0.1,0.5,0.3,0.7,0.4C33.9,29.5,33.6,29.4,33.4,29.1z"/>
<path class="st67" d="M42.7,30.2L42.7,30.2c-0.3,0.2-0.6,0.3-0.9,0.2C42.1,30.3,42.4,30.2,42.7,30.2z"/>
<path class="st30" d="M38,31.3c0.3-0.2,0.5-0.2,0.9-0.2C38.5,31.3,38.2,31.2,38,31.3z"/>
<path class="st67" d="M30.2,27.1c0.3,0,0.6,0.2,0.8,0.4C30.7,27.4,30.5,27.2,30.2,27.1z"/>
<path class="st67" d="M26.6,27.1c-0.3-0.2-0.6-0.3-0.9-0.6C26.1,26.6,26.4,26.8,26.6,27.1z"/>
<path class="st67" d="M29.4,22.4c-0.3-0.1-0.4-0.4-0.5-0.7C29.1,22,29.2,22.2,29.4,22.4z"/>
<path class="st63" d="M32,26c0.2,0.1,0.4,0.3,0.5,0.6C32.3,26.4,32.1,26.2,32,26z"/>
<path class="st63" d="M35.6,30.1c-0.3-0.1-0.4-0.4-0.5-0.6C35.4,29.6,35.5,29.9,35.6,30.1z"/>
<path class="st60" d="M30.9,16.1c0.2,0,0.3-0.1,0.5,0c-0.3,0.1-0.6,0-0.8,0.3c0-0.1,0-0.2,0-0.3C30.7,16.1,30.8,16,30.9,16.1
	C30.9,16,30.9,16.1,30.9,16.1z"/>
<path class="st67" d="M34.1,28.2c-0.2-0.1-0.4-0.3-0.5-0.5C33.8,27.9,33.9,28.1,34.1,28.2z"/>
<path class="st67" d="M36.2,32.8c-0.1,0.3-0.1,0.6-0.4,0.8C35.9,33.3,36,33,36.2,32.8z"/>
<path class="st30" d="M39.9,28.6c0.3,0,0.6,0.1,0.8,0.2C40.4,28.9,40.1,28.8,39.9,28.6z"/>
<path class="st63" d="M34.6,29.9c0.2,0.1,0.4,0.2,0.6,0.4C35,30.3,34.7,30.2,34.6,29.9z"/>
<path class="st15" d="M38.2,28c0.3,0,0.6,0.1,0.8,0.2C38.7,28.3,38.4,28.2,38.2,28z"/>
<path class="st44" d="M27.2,15.4c0.1,0.2,0.1,0.4,0,0.6C27,15.8,27,15.6,27.2,15.4z"/>
<path class="st15" d="M42.5,29.5c0.2,0.1,0.6,0,0.8,0.3C43,29.7,42.6,29.8,42.5,29.5z"/>
<path class="st44" d="M44.9,33.1c-0.3,0-0.6,0.1-0.8-0.2C44.4,32.9,44.7,32.9,44.9,33.1z"/>
<path class="st63" d="M27.2,17.3c0.1-0.2,0.2-0.5,0.2-0.7C27.5,16.9,27.4,17.1,27.2,17.3z"/>
<path class="st60" d="M26.3,17.3c0-0.2-0.2-0.4-0.1-0.7C26.3,16.8,26.4,17,26.3,17.3z"/>
<path class="st67" d="M28.1,15.5c0-0.2,0.1-0.4,0.2-0.6C28.3,15.1,28.2,15.3,28.1,15.5z"/>
<path class="st64" d="M29.5,19c-0.2,0-0.4,0-0.7-0.2C29.1,18.9,29.3,18.8,29.5,19L29.5,19z"/>
<path class="st8" d="M36.7,31.8c-0.1,0.3-0.1,0.7-0.4,0.9C36.4,32.5,36.4,32.1,36.7,31.8z"/>
<path class="st68" d="M45.8,15.9c0.2,0.2,0.4,0.3,0.6,0.5c0.4,0.5,0.5,1,0.4,1.6c0,0.7-0.3,1.5-0.4,2.2c-0.2,0.7-0.5,1.4-0.5,2.2
	c-0.1,0.4-0.1,0.7-0.3,1.1c0,0.1-0.1,0.1-0.1,0.2c-0.3,0.1-0.5-0.1-0.7-0.1c-0.3-0.1-0.5-0.4-0.9-0.3h-0.1c-0.2-0.1-0.4-0.3-0.7-0.3
	H43c-0.5-0.3-1-0.5-1.5-0.5h-0.1c-0.2-0.1-0.4-0.3-0.7-0.3h-0.1c-0.2-0.2-0.4-0.3-0.7-0.2c-0.1,0-0.2,0-0.3-0.1
	c-0.2-0.2-0.5-0.3-0.7-0.5c-0.2-0.1-0.3-0.2-0.3-0.4c0.3-0.3,0.3-0.7,0.4-1.1c0,0,0-0.1,0.1-0.1c0.2-0.2,0.2-0.5,0.4-0.8
	c0.3-0.3,0.4-0.7,0.6-1.1c0.2-0.3,0.4-0.5,0.4-0.8c0-0.1,0.1-0.1,0.1-0.1c0.3-0.2,0.3-0.5,0.4-0.8c0.4-0.5,0.7-1.1,0.9-1.7
	c0.1-0.1,0.1-0.3,0.2-0.4c0.2-0.2,0.3-0.6,0.7-0.5c0.8,0.7,1.7,1.4,2.4,2.2C45.3,15.5,45.6,15.7,45.8,15.9z"/>
<path class="st2" d="M56.9,14.8c0.1,0.2,0.3,0.5,0.3,0.7c0.4,0.7,0.7,1.4,0.9,2.2c0,0.2,0,0.3-0.1,0.4c-0.5,1.3-1.2,2.5-1.8,3.7
	c-0.2,0.3-0.2,0.7-0.4,0.9c-0.2,0.6-0.5,1.2-0.8,1.8c-0.2,0.3-0.2,0.7-0.4,0.9l0,0c-0.2,0.2-0.2,0.6-0.4,0.8
	c-0.1,0.3-0.2,0.6-0.4,0.8c-0.2-0.1-0.2-0.3-0.3-0.4v-0.1c0-0.8,0.1-1.7-0.1-2.5v-0.1c0-0.4-0.1-0.8-0.2-1.2v-0.1
	c0.1-0.6,0-1.3-0.2-1.9c-0.3-0.5-0.5-1-0.8-1.5c-0.1-0.2-0.2-0.3-0.1-0.5c0.1-0.1,0.1-0.2,0.2-0.3c0.3-0.3,0.5-0.7,0.8-1.1l0,0
	c0.4-0.3,0.6-0.7,0.8-1.1c0,0,0.1,0,0.1-0.1c0.3-0.3,0.5-0.7,0.8-1c0,0,0.1,0,0.1-0.1c0.4-0.3,0.6-0.7,0.8-1.1l0,0
	c0.1-0.1,0.2-0.2,0.3-0.3c0.2-0.2,0.4-0.2,0.5,0.1C56.7,14,56.8,14.4,56.9,14.8z"/>
<path class="st2" d="M45.5,23.5c0-0.4,0.2-0.7,0.2-1.1c0.1-0.7,0.3-1.3,0.4-2c0-0.1,0.1-0.2,0.1-0.3c0.1-0.7,0.4-1.4,0.4-2.2
	c0.1-0.2,0.1-0.4,0.1-0.6s0-0.4,0.2-0.5c0.1-0.1,0.3,0,0.4-0.2c0.6-0.1,1.1-0.3,1.6-0.4c0.3-0.1,0.6-0.1,0.9-0.3
	c0.1-0.1,0.3,0,0.4,0.2c0,0.2,0.2,0.3,0.2,0.5c0,0.7,0,1.5,0,2.2c-0.1,0.4-0.1,0.9,0,1.3c0,0.9,0,1.9,0,2.8c-0.1,0.4-0.2,0.8,0,1.2
	v0.1c-0.1,0.2,0,0.5-0.3,0.5c-0.2,0-0.3-0.3-0.3-0.5c0-0.1,0-0.1,0-0.1c0.1,0.2,0.2,0.5,0.3,0.7c0.2,0.3-0.1,0.3-0.3,0.4h-0.1
	c-0.3-0.1-0.6-0.3-0.9-0.3c-0.3-0.1-0.6-0.2-0.9-0.3c-0.2-0.2-0.5-0.3-0.8-0.3c-0.3-0.1-0.6-0.2-0.8-0.3
	C46.1,23.8,45.7,23.9,45.5,23.5z"/>
<path class="st68" d="M40.5,16.8L40.5,16.8c-0.2,0.4-0.3,0.7-0.5,0.9c-0.2,0.4-0.3,0.8-0.6,1.1c-0.1,0.3-0.3,0.6-0.4,0.9l0,0
	c-0.3,0.3-0.3,0.7-0.6,0.9c0,0,0,0.1-0.1,0.1c-0.2,0-0.2-0.3-0.3-0.4l0,0c-0.2-0.4-0.3-0.8-0.5-1.1c0-0.2-0.1-0.3-0.2-0.4
	c-0.2-0.4-0.3-0.8-0.5-1.1c-0.1-0.1-0.1-0.3-0.2-0.4c-0.2-0.4-0.4-0.7-0.5-1.1l0,0C36,16,35.9,15.8,36,15.6c0.5-0.7,1.1-1.3,1.6-1.9
	c0.5-0.6,1.2-1.1,1.7-1.7c0.1-0.2,0.3-0.3,0.5-0.3c-0.1,0,0,0,0,0c0,0.1,0,0,0,0c0-0.1-0.1-0.2,0-0.3s0.1,0,0.2,0.1
	c0,0,0.1,0,0.1,0.1c0.2,0.3,0.6,0.3,0.9,0.5l0,0c0.2,0.3,0.7,0.3,0.9,0.6H42c0.2,0.2,0.3,0.3,0.1,0.6c-0.1,0.1-0.1,0.3-0.2,0.4
	c-0.2,0.5-0.5,0.9-0.7,1.4c-0.1,0.3-0.2,0.5-0.4,0.7C40.8,16.2,40.7,16.5,40.5,16.8z"/>
<path class="st2" d="M50.2,18.8c0.1-0.7,0-1.4,0-2.1c0.1-0.1,0-0.1,0-0.2s-0.1-0.2,0-0.3c0.2-0.1,0.2,0.1,0.3,0.2
	c0.2,0.4,0.5,0.8,0.7,1.2c0.2,0.3,0.4,0.6,0.6,0.9c0.1,0.1,0.1,0.2,0.2,0.2c0.4,0.6,0.7,1.2,1.1,1.8c0.2,0.7,0.2,1.4,0.3,2
	c0,0,0,0,0,0.1c0.1,0.4,0,0.9,0.2,1.3V24c-0.2,0.3,0.1,0.5,0.1,0.7c0,0.6,0,1.2,0.1,1.8c0,0,0,0,0,0.1c0,0.6,0.1,1.1,0.1,1.7
	c0,0.2,0.2,0.6-0.3,0.6c0,0-0.1,0-0.1-0.1c0,0,0-0.1-0.1-0.1c-0.3-0.5-0.7-0.8-1.2-1.1c-0.1-0.1-0.2-0.2-0.3-0.3
	c-0.2-0.5-0.6-0.8-1.1-1.1c-0.1-0.1-0.2-0.3-0.3-0.4c-0.3-0.3-0.5-0.7-0.3-1.1c0.1-0.2-0.1-0.4,0-0.6l0,0c0.1-0.5,0-0.9,0-1.4
	c0-0.6,0-1.1,0-1.7c0-0.4,0.1-0.7,0-1.1C50.3,19.7,50.2,19.2,50.2,18.8z"/>
<path class="st1" d="M39.9,11.7c-0.3,0.2-0.4,0.5-0.7,0.7c-0.8,0.7-1.5,1.5-2.2,2.3c-0.3,0.3-0.5,0.7-0.8,0.9
	c-0.4,0.1-0.2-0.3-0.3-0.4c-0.1-0.3-0.1-0.6-0.2-0.8c-0.1-0.4-0.2-0.9-0.3-1.3c0-0.4,0.5-1,0.9-1.1c0.6-0.5,1.2-1,1.8-1.5
	c0.3-0.2,0.6-0.4,0.8-0.7c0.4-0.4,0.8-0.8,1.3-1.1c0.1-0.1,0.2-0.2,0.3-0.3c0.2,0,0.2,0.1,0.1,0.2c0,0.1-0.1,0.3-0.1,0.4
	c-0.2,0.6-0.3,1.2-0.5,1.8s-0.2,0.6-0.7,0.6C39.5,11.7,39.8,11.4,39.9,11.7z"/>
<path class="st36" d="M45.9,8.8c0.2-0.2,0.3-0.4,0.6-0.2C45.8,9,46,9.7,46.1,10.4c-0.2-0.3-0.2-0.5-0.2-0.6c0-0.6-0.3-0.7-0.8-0.5
	c-0.3,0.1-0.6,0.2-0.9,0.4l0,0c0.3-0.3,0.7-0.3,1-0.5c0.3-0.1,0.2-0.2,0-0.3c0.2,0,0.4,0,0.5,0C45.8,8.9,45.8,8.8,45.9,8.8z"/>
<path class="st44" d="M50.6,16.3c-0.4-0.2-0.2,0.3-0.4,0.3c0-0.1,0-0.2,0-0.3c0-0.3-0.2-0.4-0.5-0.3c-0.6,0.2-1.2,0.4-1.8,0.6
	c-0.2,0-0.3,0-0.5,0c0.5-0.1,1-0.2,1.5-0.5c0.4-0.2,1-0.1,1.3-0.6C50.3,15.8,50.4,16.1,50.6,16.3z"/>
<path class="st36" d="M55.8,11.4c0.1,0.1,0.1,0.2,0.3,0.4c-0.1-0.5-0.1-0.9-0.2-1.3H56c0.2,0.8,0.3,1.6,0.4,2.4
	C56,12.4,55.9,11.9,55.8,11.4z"/>
<path class="st62" d="M56.9,14.8c-0.2-0.3-0.3-0.6-0.4-0.9c-0.1-0.3-0.3-0.4-0.5-0.1c-0.1,0.1-0.2,0.2-0.3,0.2
	c0.3-0.3,0.4-0.6,0.6-0.9C56.6,13.5,56.9,14.1,56.9,14.8z"/>
<path class="st69" d="M45.9,8.8c-0.1,0.1-0.1,0.1-0.3,0.1c0.2-0.4,0.2-0.9,0.3-1.4c0.1-0.3,0-0.6,0.2-0.8C46.1,7.4,46,8.1,45.9,8.8z
	"/>
<path class="st63" d="M39.9,11.7c-0.3-0.2-0.6,0.1-0.9,0c0.5-0.2,1-0.2,1.1-0.8c0,0.3,0,0.3,0.3,0.3c0,0.2-0.2,0.1-0.3,0.3
	C40,11.5,40,11.6,39.9,11.7c0.1,0.2,0.1,0.4,0,0.6C39.9,12.1,39.9,11.9,39.9,11.7z"/>
<path class="st40" d="M46.9,16.8c-0.1,0.4-0.1,0.8-0.3,1.1c0-0.1,0-0.2,0.1-0.4c0-0.2,0-0.5-0.3-0.4c0.3-0.2,0.3-0.2,0.1-0.7
	C46.5,16.7,47,16.5,46.9,16.8z"/>
<path class="st70" d="M46.3,12.3c-0.2-0.5-0.2-1.1-0.2-1.6C46.2,11.2,46.2,11.8,46.3,12.3z"/>
<path class="st19" d="M46.5,14.3c-0.2-0.5-0.2-1.1-0.2-1.6C46.5,13.2,46.5,13.7,46.5,14.3z"/>
<path class="st36" d="M48.9,7.4c0.5-0.4,1-0.7,1.5-0.9C49.9,6.9,49.4,7.1,48.9,7.4z"/>
<path class="st71" d="M54.6,7.5C54.8,8,55,8.6,55.1,9.1C54.8,8.7,54.6,8.1,54.6,7.5z"/>
<path class="st67" d="M55.7,13.9c-0.2,0.4-0.4,0.9-0.8,1.1C55.1,14.6,55.3,14.2,55.7,13.9z"/>
<path class="st57" d="M54.8,15.1c-0.1,0.4-0.3,0.8-0.8,1C54.3,15.8,54.4,15.4,54.8,15.1z"/>
<path class="st13" d="M46.7,16.2c-0.1-0.4-0.1-0.8-0.2-1.3h0.1C46.7,15.3,46.7,15.8,46.7,16.2L46.7,16.2z"/>
<path class="st16" d="M40.6,9.1c-0.1-0.2,0.1-0.4-0.1-0.6c0.1-0.1,0.3-0.2,0.4-0.2c0.1,0,0.2,0,0.3,0.1l0,0
	c-0.4-0.1-0.5,0.1-0.6,0.5C40.7,8.9,40.7,9,40.6,9.1z"/>
<path class="st71" d="M55.1,9.2c0.1,0.4,0.3,0.8,0.4,1.2c0,0.1,0,0.2-0.1,0.3C55.4,10.1,55.1,9.7,55.1,9.2z"/>
<path class="st7" d="M42.1,13.8c0.1-0.3,0.4-0.6,0.1-1c0.2,0.1,0.3,0.2,0.4,0.3C42.3,13.3,42.4,13.7,42.1,13.8z"/>
<path class="st30" d="M53.9,16.2c-0.1,0.5-0.4,0.9-0.8,1.1C53.4,16.9,53.6,16.5,53.9,16.2z"/>
<path class="st30" d="M53.1,17.3c-0.2,0.4-0.4,0.8-0.8,1.1C52.5,18,52.7,17.6,53.1,17.3z"/>
<path class="st71" d="M42.7,12.9c0.2-0.3,0.3-0.6,0.6-0.8C43.1,12.4,43,12.7,42.7,12.9z"/>
<path class="st72" d="M45.4,8.5c-0.3-0.2-0.5-0.5-0.6-0.8C45.1,7.9,45.2,8.2,45.4,8.5z"/>
<path class="st36" d="M44.4,7.2C44.2,7,44,6.7,43.7,6.4C44.1,6.6,44.3,6.9,44.4,7.2z"/>
<path class="st13" d="M43.5,8.7c0.3-0.1,0.5-0.1,0.7,0C43.9,8.9,43.9,8.9,43.5,8.7z"/>
<path class="st60" d="M42.1,12.8c-0.3-0.2-0.7-0.2-0.9-0.6C41.5,12.4,41.9,12.4,42.1,12.8z"/>
<path class="st73" d="M41.2,12.1c-0.3-0.1-0.7-0.2-0.9-0.5C40.6,11.8,40.9,11.9,41.2,12.1z"/>
<path class="st13" d="M45.4,9.5c-0.1,0.2-0.2,0.5-0.5,0.6C45,9.9,45.1,9.7,45.4,9.5z"/>
<path class="st71" d="M54.1,6.1c0.2,0.3,0.3,0.7,0.3,1.1C54.3,6.8,54.1,6.5,54.1,6.1z"/>
<path class="st14" d="M51.9,18.5c-0.3-0.2-0.4-0.5-0.6-0.9C51.6,17.8,51.7,18.1,51.9,18.5z"/>
<path class="st36" d="M47.4,8.3c0.2-0.4,0.5-0.4,0.9-0.6C48.1,8,47.7,8,47.4,8.3z"/>
<path class="st71" d="M44.3,10.8c0,0.3-0.3,0.4-0.4,0.6C43.9,11.1,44.2,11,44.3,10.8z"/>
<path class="st33" d="M51.1,11.1c0.2,0,0.4,0,0.6,0.2C51.4,11.3,51.3,11.2,51.1,11.1z"/>
<path class="st32" d="M45.8,15.9c-0.3-0.1-0.6-0.3-0.8-0.6C45.4,15.4,45.6,15.7,45.8,15.9z"/>
<path class="st74" d="M44.2,9.8c-0.3,0.1-0.5,0.3-0.8,0.2C43.6,10,43.8,9.7,44.2,9.8C44.1,9.8,44.2,9.8,44.2,9.8z"/>
<path class="st17" d="M41.3,8.3c0.2,0,0.4,0,0.6,0.1C41.7,8.5,41.5,8.6,41.3,8.3L41.3,8.3z"/>
<path class="st75" d="M11.5,41.7c-0.1-0.9,0.3-1.9-0.1-2.8c0.2,0.1,0.1,0.2,0.2,0.4c0.2-0.5,0.1-1.1,0.3-1.6
	C11.9,39.1,11.7,40.4,11.5,41.7z"/>
<path class="st18" d="M19,40.4C19,40.5,19,40.5,19,40.4c0,0.1,0,0.2,0.1,0.3c0,0.1-0.1,0.1-0.2,0c-0.2-0.1-0.1,0-0.2,0.1
	s-0.1,0.4-0.3,0.3c-0.3-0.2-0.4,0.2-0.6,0.2c0-0.2,0.2-0.2,0.4-0.4c-0.4-0.1-0.7,0.3-1,0.2c0.5-0.2,0.9-0.4,1.4-0.5
	C18.7,40.5,18.7,40.2,19,40.4z"/>
<path class="st27" d="M12.7,36c0.4-0.2,0.7-0.6,1.2-0.7c-0.4,0.4-0.8,0.7-1.2,1c-0.2,0.1-0.5,0.2-0.4,0.6c-0.3-0.1-0.4-0.2-0.1-0.4
	C12.4,36.3,12.6,36.1,12.7,36z"/>
<path class="st12" d="M14.8,34.6c0.4-0.5,0.9-0.8,1.4-1.2c0.2-0.2,0.4-0.4,0.7-0.4C16.2,33.6,15.5,34.1,14.8,34.6z"/>
<path class="st76" d="M18.7,39.8c-0.2-0.6-0.2-1.3-0.3-2C18.6,38.5,18.7,39.2,18.7,39.8L18.7,39.8z"/>
<path class="st47" d="M19,40.4c-0.2,0-0.3,0.1-0.4,0.2c0-0.1-0.1-0.2-0.2-0.3c0.4,0,0.4,0,0.3-0.4l0,0C18.8,40,18.9,40.2,19,40.4
	C19,40.3,19,40.4,19,40.4z"/>
<path class="st26" d="M18,34.4c0.1,0.4,0.1,0.8,0.2,1.2C17.9,35.2,17.9,34.8,18,34.4C17.9,34.3,17.9,34.3,18,34.4z"/>
<path class="st54" d="M11.7,35.1c0.3,0.2,0.7,0.4,0.9,0.7C12.2,35.6,11.8,35.5,11.7,35.1z"/>
<path class="st64" d="M16.7,41.3c-0.3,0.2-0.7,0.3-1.1,0.4C15.9,41.4,16.3,41.4,16.7,41.3z"/>
<path class="st46" d="M16.2,39c-0.3,0-0.5-0.2-0.8-0.4C15.7,38.7,16,38.8,16.2,39z"/>
<path class="st77" d="M17.9,32.3c0,0.1-0.1,0.1-0.1,0.2c-0.2,0.2,0.1,0.5,0,0.8l0,0c-0.1-0.3-0.1-0.5-0.2-0.8
	C17.6,32.4,17.7,32.3,17.9,32.3z"/>
<path class="st20" d="M17.7,33.3C17.7,33.3,17.8,33.3,17.7,33.3c0.1,0.4,0.2,0.7,0.2,1.1h-0.1C17.8,34,17.7,33.6,17.7,33.3z"/>
<path class="st47" d="M14.6,38c0.2,0.1,0.4,0.2,0.6,0.3C14.9,38.4,14.7,38.2,14.6,38z"/>
<path class="st78" d="M13.6,37.6c0.3,0,0.5,0.1,0.6,0.3C14,37.8,13.8,37.7,13.6,37.6z"/>
<path class="st79" d="M16.5,39.1c0.2,0.1,0.4,0.2,0.6,0.3C16.9,39.5,16.6,39.4,16.5,39.1z"/>
<path class="st68" d="M47.9,33.4c0.2-0.1,0.2-0.3,0.4-0.3c0.2-0.3,0.4-0.5,0.7-0.6c0.2-0.2,0.5-0.3,0.7-0.5s0.5-0.3,0.7-0.5
	c0.4-0.6,1-1,1.6-1.3c0.1-0.1,0.3-0.1,0.3,0c0.1,0.2,0.1,0.3,0,0.5c0,0.5-0.1,1-0.1,1.5C52,32.7,52,33.3,52,33.8c0,0.2,0,0.3,0,0.5
	c0,0.5-0.1,1-0.1,1.5c-0.3,0.2-0.2,0.6-0.2,0.9c-0.1,1-0.1,1-1.1,1.4c-1,0.3-2,0.7-3,1c-0.1,0-0.3,0.3-0.3-0.1c0,0,0,0-0.1,0
	c-0.5,0.4-0.3-0.2-0.4-0.3c-0.2-0.3-0.2-0.7-0.5-1c-0.2-0.2-0.3-0.6-0.4-0.9c-0.3-0.5-0.3-1.1-0.7-1.5c0.6-0.4,1.2-0.8,1.9-1.2
	C47.3,33.8,47.5,33.5,47.9,33.4z"/>
<path class="st7" d="M42.6,36.1L42.6,36.1c0.2-0.5,0.5-0.7,0.9-0.7c-0.1,0.1-0.2,0.1-0.4,0.2c0.4,0.2,0.7-0.2,1-0.1
	C43.7,35.8,43.1,35.9,42.6,36.1z"/>
<path class="st80" d="M45.2,39.8c-0.6,0-1.2-0.1-1.8-0.2C44,39.6,44.6,39.7,45.2,39.8z"/>
<path class="st76" d="M44.7,43.6c0.1-0.2,0.1-0.4,0.2-0.7c0-0.1-0.2-0.1-0.3-0.1s-0.2,0-0.1-0.1c0.2,0,0.3,0,0.5-0.1
	c0.1,0.4,0.6,0.2,0.8,0.4c-0.1,0-0.1,0-0.2,0c-0.3-0.1-0.6,0-0.6,0.3C44.9,43.4,44.8,43.5,44.7,43.6z"/>
<path class="st36" d="M42.8,38.8c-0.1-0.5-0.1-1.1-0.2-1.6C42.8,37.7,42.8,38.2,42.8,38.8z"/>
<path class="st55" d="M45.6,38.8c-0.3-0.1-0.4-0.2-0.6-0.5C45.3,38.4,45.4,38.6,45.6,38.8z"/>
<path class="st28" d="M22,30.4c-0.3,0.1-0.7,0.3-1,0.4C21.1,30.5,21.5,30.3,22,30.4z"/>
<path class="st52" d="M22.2,30.3L22.2,30.3C22.1,30.3,22.1,30.3,22.2,30.3c-0.3-0.2-0.6,0-0.8-0.3c0.1-0.1,0.3,0.1,0.2-0.1
	c0-0.2,0-0.1,0.1-0.1c0.2,0.1,0.3,0.2,0.5,0.3C22.2,30.2,22.2,30.3,22.2,30.3z"/>
<path class="st46" d="M12.8,33.4c0.4-0.3,0.8-0.4,1.3-0.4C13.7,33.1,13.3,33.2,12.8,33.4z"/>
<path class="st81" d="M15.1,32.6c0.3-0.2,0.6-0.3,1-0.4C15.8,32.5,15.4,32.5,15.1,32.6z"/>
<path class="st77" d="M18,31.6c-0.3,0.2-0.5,0.3-0.9,0.3C17.5,31.8,17.8,31.7,18,31.6z"/>
<path class="st82" d="M18.3,29.6c0.3,0,0.6-0.1,0.8,0.2C18.9,29.7,18.6,29.8,18.3,29.6z"/>
<path class="st20" d="M19.9,29.8c0.2,0,0.5,0,0.7,0.1C20.3,30,20.1,30.1,19.9,29.8z"/>
<path class="st4" d="M18.4,41.1c0.1-0.1,0.2-0.2,0.3-0.3c0.2,0.2,0.3,0.5,0.3,0.7c0.3,0.9,0.4,1.9,0.6,2.8c0.3,1.1,0.6,2.2,0.7,3.3
	c0.3,0.3,0.1,0.8,0.3,1.1c0.1,0.5,0.3,1.1,0.4,1.6c0,0.1,0,0.1,0,0.2c0,0.2-0.1,0.3-0.3,0.3c-1.2,0.6-2.4,1.1-3.6,1.7
	c-0.2,0.1-0.4,0.2-0.7,0.2c-0.1-0.1-0.1-0.2-0.2-0.2c-0.1-0.3-0.3-0.5-0.5-0.8c-0.4-0.7-0.9-1.3-1.3-1.9l0,0
	c-0.3-0.3-0.5-0.7-0.8-1.1l0,0c-0.3-0.3-0.5-0.6-0.7-1l-0.1-0.1c0.2-0.2,0.3-0.4,0.5-0.6c0.2-0.2,0.4-0.5,0.5-0.7
	c0.1-0.1,0.2-0.2,0.3-0.3c0-0.1,0-0.1,0.1-0.2c0.3-0.3,0.5-0.7,0.8-1l0.1-0.1c0.3-0.3,0.5-0.8,0.8-1.1c0.1-0.1,0.1-0.1,0.2-0.2
	c0.2-0.2,0.4-0.6,0.6-0.8c0.1-0.1,0.2-0.2,0.3-0.3l0,0c0.3-0.4,0.5-0.8,0.9-1.1C18.3,41.2,18.3,41.2,18.4,41.1z"/>
<path class="st44" d="M16.1,54.1c-0.1,0.3,0.2,0.5,0.3,0.8c0.2,0.4,0.4,0.8,0.6,1.3c-0.4-0.4-0.5-1-0.8-1.5
	c-0.1-0.2-0.3-0.4-0.3-0.7c0-0.1-0.1-0.2,0-0.3c0.1-0.1,0.1,0,0.2,0C16.2,53.9,16.2,54,16.1,54.1z"/>
<path class="st83" d="M16.4,52.6c0.1,0,0.2,0,0.3,0.1c0.2,0.1,0.6-0.1,0.6,0.3c-0.2,0.4-0.4,0-0.6,0.1c-0.3-0.5-0.8-0.3-1.2-0.4
	c-0.1,0-0.2,0-0.2-0.2C15.6,52.5,16,52.6,16.4,52.6z"/>
<path class="st31" d="M16.1,54.1c0-0.1,0-0.2-0.1-0.3c-0.1,0-0.1,0.1-0.1,0.2c-0.1-0.2-0.2-0.3-0.2-0.5c0-0.1,0.1-0.1,0.1,0
	c0.6,0.1,0.6,0.6,0.9,1C16.3,54.5,16.2,54.3,16.1,54.1z"/>
<path class="st17" d="M14.6,49.9c0.5,0.6,0.9,1.2,1.3,1.9c-0.4-0.4-0.6-0.9-0.9-1.3C14.8,50.3,14.5,50.2,14.6,49.9z"/>
<path class="st44" d="M15.7,53.5C15.7,53.5,15.6,53.5,15.7,53.5c-0.3-0.2-0.3-0.4-0.4-0.6c-0.1-0.1-0.2-0.2-0.3-0.3
	c0-0.1,0-0.1,0.1-0.2c0.1-0.1,0.1,0,0.2,0.1l0,0c0.1,0.1,0.1,0.1,0.2,0.2C15.4,53,15.7,53.1,15.7,53.5z"/>
<path class="st17" d="M13.2,47.7c0.2,0.3,0.5,0.6,0.7,1C13.4,48.6,13.2,48.2,13.2,47.7z"/>
<path class="st17" d="M13.8,48.8c0.3,0.3,0.6,0.7,0.8,1.1C14.2,49.6,14,49.2,13.8,48.8z"/>
<path class="st84" d="M11.3,49.2c0.3,0.2,0.6,0.4,0.8,0.7C11.7,49.7,11.5,49.5,11.3,49.2z"/>
<path class="st69" d="M10.8,48.9c-0.3-0.2-0.6-0.4-0.8-0.7C10.4,48.3,10.6,48.6,10.8,48.9C10.9,48.8,10.9,48.9,10.8,48.9z"/>
<path class="st46" d="M15.2,52.5c-0.1,0-0.2,0-0.2,0.1c-0.3-0.2,0.1-0.3,0-0.6C15.1,52.1,15.2,52.3,15.2,52.5z"/>
<path class="st85" d="M22.2,30.3c0-0.1,0-0.1,0-0.2s0.1-0.1,0.1-0.2l0,0c0.1,0.2,0.2,0,0.3,0.2c0.1,0.1,0.1,0.2,0,0.3
	c-0.3-0.1-0.2,0.3-0.3,0.4C22.1,30.7,22.2,30.5,22.2,30.3z"/>
<path class="st14" d="M25.9,28.4c-0.3,0.3-0.6,0.4-1,0.5C25.2,28.7,25.5,28.6,25.9,28.4z"/>
<path class="st52" d="M22.6,30.2c-0.1,0-0.3,0-0.3-0.2c0.3,0,0.3-0.4,0.6-0.5C22.8,29.7,22.6,29.9,22.6,30.2z"/>
<path class="st38" d="M24,31.3c-0.3-0.1-0.7-0.2-0.9-0.5C23.5,30.9,23.8,31.1,24,31.3z"/>
<path class="st86" d="M25,26.3c-0.1,0.2-0.2,0.4-0.4,0.6C24.7,26.7,24.8,26.5,25,26.3z"/>
<path class="st14" d="M14.5,46c-0.3,0.3-0.5,0.8-0.9,1c0.1-0.4,0.4-0.6,0.7-1C14.3,46,14.4,45.9,14.5,46z"/>
<path class="st74" d="M17.4,42.4c-0.2,0.3-0.4,0.6-0.7,0.9c-0.1,0.1-0.1,0.2-0.3,0.2C16.7,43,16.9,42.6,17.4,42.4z"/>
<path class="st32" d="M18.2,41.3c-0.3,0.4-0.5,0.8-0.9,1.1C17.6,41.9,17.8,41.5,18.2,41.3z"/>
<path class="st40" d="M15.4,44.8c-0.2,0.4-0.4,0.8-0.8,1C14.8,45.5,14.9,45,15.4,44.8z"/>
<path class="st27" d="M16.3,43.6c-0.3,0.4-0.4,0.8-0.8,1.1C15.7,44.3,15.9,43.9,16.3,43.6z"/>
<path class="st20" d="M14.8,43.4c0.3-0.2,0.5-0.4,0.9-0.6C15.4,43,15.2,43.3,14.8,43.4L14.8,43.4z"/>
<path class="st20" d="M12.3,45.1c0.2-0.1,0.4-0.3,0.6-0.4C12.8,44.9,12.6,45.1,12.3,45.1z"/>
<path class="st69" d="M16.1,42.6c0.1-0.2,0.3-0.4,0.6-0.5C16.4,42.3,16.2,42.4,16.1,42.6z"/>
<path class="st82" d="M14.9,43.4c-0.2,0.3-0.4,0.4-0.7,0.5C14.3,43.6,14.6,43.5,14.9,43.4C14.8,43.4,14.9,43.4,14.9,43.4z"/>
<path class="st69" d="M11.4,45.8c0.2-0.1,0.4-0.3,0.5-0.4C11.8,45.6,11.7,45.8,11.4,45.8z"/>
<path class="st76" d="M27.6,57.1c0.4-0.2,0.7,0.2,1.1,0c-0.2,0.2-0.5,0.1-0.6,0.4c-0.1,0.1-0.3,0.2-0.4,0.2c0-0.2,0.1-0.4-0.3-0.2
	c-0.2,0.1-0.4,0.2-0.7,0c-0.1-0.1-0.4,0-0.6,0s-0.3,0-0.5-0.1c0.2-0.3,0.5-0.2,0.7-0.2c0.4,0,0.7,0.1,1.1,0
	C27.5,57.1,27.6,57.1,27.6,57.1z"/>
<path class="st19" d="M33.6,56.9c0,0.3,0,0.7,0,1c0,0.1,0,0.3-0.1,0.3C33.5,57.7,33.5,57.3,33.6,56.9z"/>
<path class="st14" d="M32,60.2c0.3,0.2,0.5,0.3,0.8,0.5C32.4,60.6,32.2,60.5,32,60.2z"/>
<path class="st44" d="M31.7,60c-0.3-0.2-0.6-0.2-0.8-0.6C31.1,59.6,31.5,59.7,31.7,60z"/>
<path class="st64" d="M30.6,59.3c-0.3-0.2-0.5-0.3-0.8-0.5c0,0,0-0.1,0.1-0.1C30.1,58.9,30.4,58.9,30.6,59.3z"/>
<path class="st82" d="M29.2,59.5c-0.2-0.3-0.5-0.6-0.5-1C28.9,58.8,29.1,59.1,29.2,59.5z"/>
<path class="st3" d="M27.6,57.1c0,0.3-0.3,0.2-0.5,0.3c-0.5,0-1,0-1.5,0c-0.9,0.1-1.9,0.1-2.8,0.1c-0.4,0.1-0.8,0-1.3,0.1
	c-0.9,0-1.8,0.1-2.7,0.1l-0.1-0.1c-0.2-0.3-0.3-0.6-0.6-0.8c0-0.2,0.1-0.3,0-0.5c-0.5-1-1-2.1-1.6-3.1c0.2-0.4,0.4,0,0.7-0.1
	c0.1-0.2,0.3-0.1,0.4,0c0.8,0.3,1.6,0.7,2.5,1c1.1,0.4,2.1,0.9,3.1,1.3c0.9,0.3,1.7,0.7,2.6,1.1C26.5,56.5,27,56.8,27.6,57.1
	C27.6,57,27.6,57.1,27.6,57.1z"/>
<path class="st46" d="M22.8,58.4c0.4-0.1,0.9-0.2,1.3-0.3c-0.4,0.2-0.8,0.3-1.3,0.4C22.8,58.5,22.8,58.4,22.8,58.4z"/>
<path class="st87" d="M27.4,58c-0.2,0.3-0.3,0.6-0.6,0.8C27,58.5,27.1,58.2,27.4,58z"/>
<path class="st76" d="M24.7,58c0.3-0.2,0.6-0.2,0.9-0.2C25.4,58,25,58,24.7,58z"/>
<path class="st47" d="M21.6,57.5c0.4-0.1,0.8,0,1.3-0.1C22.4,57.6,22,57.6,21.6,57.5z"/>
<path class="st79" d="M21.3,58.7c-0.3,0.2-0.6,0.1-0.9,0.2C20.7,58.7,21,58.8,21.3,58.7z"/>
<path class="st59" d="M58.1,18.1c0.1-0.5-0.3-0.9-0.4-1.4c-0.1-0.4-0.3-0.8-0.4-1.2c0.2,0.1,0.2,0.3,0.3,0.4c-0.2-0.7-0.3-1.3-0.5-2
	h0.1c0.2,0.8,0.4,1.6,0.7,2.4c0.2,0.6,0.2,1.2,0.6,1.7C58.3,17.9,58.2,18,58.1,18.1z"/>
<path class="st67" d="M53.6,28.8c0.3,0,0.3-0.2,0.2-0.4c0-0.5-0.1-1-0.1-1.5c0-0.1,0-0.2,0.1-0.3c0,0.1,0.1,0.3,0.1,0.4
	c0,0.4,0.2,0.7,0.1,1.1c0,0.2,0.2,0.2,0.3,0.2c-0.1,0.2-0.4,0.3-0.3,0.6c0,0.1-0.1,0.2-0.1,0.2c-0.3,0.3-0.6,0.4-0.9,0.6
	c-0.1-0.1-0.1-0.2,0-0.2C53.1,29.2,53.3,29,53.6,28.8z"/>
<path class="st40" d="M56,24.2c-0.1,0.2-0.2,0.5-0.4,0.7C55.6,24.6,55.7,24.4,56,24.2z"/>
<path class="st17" d="M55.9,22.7c0.1-0.3,0.2-0.7,0.4-0.9C56.3,22.1,56.2,22.5,55.9,22.7z"/>
<path class="st17" d="M54.3,26.3c0.1-0.3,0.2-0.6,0.4-0.8C54.5,25.7,54.6,26.1,54.3,26.3z"/>
<path class="st56" d="M56.1,23.9c0.1-0.2,0.2-0.4,0.3-0.6h0.1C56.4,23.5,56.3,23.7,56.1,23.9L56.1,23.9z"/>
<path class="st17" d="M54.7,25.4c0.1-0.3,0.2-0.7,0.4-0.9C55,24.8,55,25.2,54.7,25.4z"/>
<path class="st32" d="M44.6,47.3c-0.5,0.5-1,1-1.7,1.3C43.4,48.1,43.9,47.6,44.6,47.3z"/>
<path class="st88" d="M42.5,49C42.4,49,42.4,49,42.5,49c0-0.4,0-0.7,0.3-0.9c0.1,0.2-0.2,0.5,0,0.7C42.6,48.8,42.8,49.2,42.5,49z"/>
<path class="st88" d="M43.1,47.2c0.1-0.3,0.1-0.7,0.4-0.9C43.4,46.6,43.4,46.9,43.1,47.2z"/>
<path class="st88" d="M42.7,48.1c0.2-0.3,0.1-0.7,0.4-0.9C43,47.5,43.1,47.9,42.7,48.1z"/>
<path class="st77" d="M43.6,46.2c0.1-0.3,0.1-0.6,0.4-0.9C43.9,45.7,43.8,46,43.6,46.2z"/>
<path class="st81" d="M44,45.3c0-0.3,0.1-0.6,0.3-0.9C44.3,44.8,44.2,45.1,44,45.3z"/>
<path class="st26" d="M44.3,44.5c0.1-0.3,0.1-0.6,0.4-0.9C44.6,43.9,44.6,44.3,44.3,44.5z"/>
<path class="st79" d="M37.6,57.8c0.1-0.1,0.1-0.4,0.4-0.1c0.2,0.2,0.5-0.1,0.7-0.1c-0.3,0.3-0.7,0.3-1,0.5
	C37.6,58,37.6,57.9,37.6,57.8z"/>
<path class="st36" d="M58.5,16.6c-0.4-1.1-0.8-2.2-1.2-3.2h0.1C57.8,14.5,58.2,15.6,58.5,16.6C58.6,16.6,58.6,16.6,58.5,16.6z"/>
<path class="st14" d="M55.6,9c0.1,0,0.1,0.1,0.2,0.2c0.1,0.2,0.1,0,0.2,0c0.2,0.3,0.4,0.6,0.3,1l0,0C55.9,9.9,55.6,9.5,55.6,9z"/>
<path class="st30" d="M56.4,10.8c0.2,0.6,0.3,1.1,0.5,1.7C56.6,12,56.5,11.4,56.4,10.8C56.3,10.8,56.3,10.8,56.4,10.8z"/>
<path class="st74" d="M56.2,10.2c0.3,0.2,0.3,0.2,0.5,1.1C56.4,10.9,56.4,10.5,56.2,10.2L56.2,10.2z"/>
<path class="st6" d="M35.1,12.4c-0.1-0.3-0.2-0.6-0.3-0.9c-0.1-0.4-0.3-0.8-0.5-1.2c-0.1-0.4-0.3-0.8-0.4-1.1c0,0,0,0,0-0.1
	c-0.1-0.3-0.2-0.6-0.3-0.9c-0.2-0.6-0.4-1.3-0.8-1.8c0-0.1,0-0.2,0-0.3c0,0,0.1,0,0.1-0.1C34,5.3,35,4.5,36.1,3.8
	c0.4-0.1,0.1,0.3,0.3,0.4c0.2-0.2,0-0.4,0.2-0.6c0.1,0.1,0.1,0.1,0.2,0.2c0.1,0,0.1,0,0.2,0c0,0,0.1,0,0.1,0.1
	c0.4,0.4,0.8,0.8,1.3,1.1c0.1,0.1,0.1,0.1,0.2,0.2c0.3,0.4,0.7,0.8,1.1,1.2v0.1c0,0.1-0.1,0.2-0.2,0.3c-0.5,0.8-1.1,1.6-1.6,2.4
	c-0.4,0.7-1,1.3-1.3,2c-0.3,0.4-0.5,0.8-0.8,1.1c-0.1,0.1-0.1,0.3-0.3,0.2c-0.1-0.2-0.1-0.4,0-0.6c-0.1,0.2,0.1,0.4-0.1,0.6
	C35.2,12.5,35.2,12.4,35.1,12.4z"/>
<path class="st6" d="M38.4,5.3c-0.1,0-0.1-0.1-0.2-0.1c-0.4-0.4-0.9-0.7-1.3-1.3l0,0c0-0.2,0.1-0.1,0.2-0.1c0.2,0.1,0.3,0.1,0.4,0.2
	c0.3,0.3,0.8,0.4,1.2,0.5c0.7,0.4,1.5,0.6,2.3,1c0,0.2-0.3,0.3-0.5,0.5c-0.3,0.2-0.5,0.4-0.8,0.5h-0.1C39.4,6.2,39,6,38.8,5.7
	C38.6,5.6,38.5,5.5,38.4,5.3z"/>
<path class="st44" d="M35.5,12.5c0.4-0.3,0.5-0.8,0.9-1.2c0.1-0.1,0.1-0.2,0.2-0.2c0,0.2,0,0.4-0.2,0.5c-0.1,0.1-0.3,0.2-0.1,0.3
	c0,0,0,0,0,0.1l0,0c-0.2,0.2-0.6,0.2-0.4,0.6c0,0.1-0.1,0.1-0.1,0.1c-0.2,0.1-0.4,0.1-0.4,0.4c0,0,0,0,0,0.1l0,0
	C35.3,13,35.2,12.8,35,13c-0.1,0.1-0.3,0.3-0.5,0.4c0-0.2,0.2-0.2,0.3-0.4c-0.2-0.2-0.5,0.2-0.7,0c0.2-0.1,0.3-0.2,0.5-0.2
	c0.4,0,0.5-0.2,0.6-0.5c0.1,0,0.1,0.1,0.2,0.1C35.4,12.5,35.4,12.5,35.5,12.5z"/>
<path class="st61" d="M36.3,12L36.3,12c0.5-0.6,1.1-1.1,1.8-1.5C37.6,11.1,36.9,11.6,36.3,12z"/>
<path class="st61" d="M40.3,8.8c-0.4,0.4-0.9,0.8-1.3,1.1C39.3,9.4,39.7,9,40.3,8.8z"/>
<path class="st30" d="M39.7,6.5C40,6.3,40.2,6.1,40.5,6c-0.3,0.3-0.6,0.5-1,0.8C39.6,6.7,39.6,6.6,39.7,6.5z"/>
<path class="st68" d="M53.6,28.8c0.2,0.2,0.1,0.4-0.1,0.5c-0.2,0.1-0.4,0.3-0.5,0.5c0,0,0,0,0,0.1c-0.5,0.2-0.8-0.1-1.2-0.3
	c-0.2-0.1-0.4-0.1-0.6-0.2c-0.1,0-0.1-0.1-0.2-0.1c-0.2-0.2-0.5-0.4-0.8-0.5c-0.1,0-0.1-0.1-0.2-0.1c-0.2-0.2-0.5-0.4-0.8-0.5
	c-0.1,0-0.1-0.1-0.2-0.1c-0.2-0.3-0.5-0.4-0.8-0.5c-0.1,0-0.1-0.1-0.2-0.1c-0.2-0.1-0.3-0.3-0.5-0.5c-0.1-0.1-0.1-0.3,0.1-0.3
	c0.1,0,0.3,0,0.4,0c0.5,0.1,0.9,0.1,1.4,0c0.1,0,0.2,0.1,0.3,0.2c0,0.1,0.1,0.3,0.3,0.2c0.2,0,0.3-0.1,0.5,0c0.8,0.3,1.6,0.7,2.3,1
	C53,28.3,53.3,28.5,53.6,28.8C53.6,28.7,53.6,28.8,53.6,28.8z"/>
<path class="st8" d="M51.2,29.1c0.4,0.2,0.8,0.2,1.2,0.6c0.2,0.2,0.4-0.1,0.5,0.1c0,0.1-0.4,0.1-0.2,0.3c0,0.1,0,0.2,0,0.2
	c0,0.1-0.1,0.2-0.2,0.3c0-0.5-0.1-0.5-0.5-0.3c-0.5,0.3-1,0.7-1.5,1.1c0-0.3,0.2-0.3,0.3-0.4c0-0.2,0.1-0.3,0.1-0.4
	c0.4-0.2,0.7-0.4,1.1-0.6c0.1-0.1,0-0.2-0.1-0.2c-0.2-0.1-0.4-0.2-0.6-0.3C51.2,29.5,51.1,29.4,51.2,29.1z"/>
<path class="st40" d="M54.3,29.8c0.4-0.2,0.8-0.1,1.2-0.1C55.1,29.8,54.7,29.9,54.3,29.8L54.3,29.8z"/>
<path class="st27" d="M52.6,30.4c-0.1-0.1-0.1-0.2,0-0.2c0.2,0.3,0.4,0.7,0.4,1.1C52.9,31,52.8,30.7,52.6,30.4z"/>
<path class="st17" d="M54.3,29.8c-0.4,0.1-0.8,0.1-1.1,0.1C53.5,29.8,53.9,29.8,54.3,29.8L54.3,29.8z"/>
<path class="st67" d="M52.1,34.3c0-0.6,0-1.2,0.1-1.8c0-0.1,0-0.2,0.2-0.3C52.3,32.9,52.3,33.6,52.1,34.3z"/>
<path class="st36" d="M52.7,32.3c0.2,0.7,0.1,1.4,0.2,2.1C52.8,33.7,52.7,33,52.7,32.3L52.7,32.3z"/>
<path class="st34" d="M53.1,37.1c-0.2-0.3-0.1-0.7-0.1-1C53.2,36.4,53.1,36.8,53.1,37.1z"/>
<path class="st34" d="M52.9,34.8c0.2,0.3,0.1,0.7,0.1,1C52.8,35.4,53,35.1,52.9,34.8z"/>
<path class="st36" d="M52.7,32.3c-0.1-0.3-0.1-0.6-0.1-0.9C52.8,31.7,52.7,32.1,52.7,32.3L52.7,32.3z"/>
<path class="st70" d="M37.7,4c-0.2,0-0.4-0.2-0.7-0.1c-0.1,0-0.1-0.1-0.2-0.1c0-0.1,0.1-0.1,0.1-0.2C37.2,3.7,37.5,3.7,37.7,4z"/>
<path class="st31" d="M17.4,55.6c-0.3-0.4-0.8-0.4-0.9-0.9C16.8,54.6,17.2,55,17.4,55.6z"/>
<path class="st69" d="M18.2,56.7c0.5,0.1,0.5,0.5,0.6,0.8C18.6,57.3,18.3,57,18.2,56.7z"/>
<path class="st4" d="M27.5,57c-0.2,0.1-0.4,0-0.6-0.1c-1.6-0.6-3.1-1.3-4.7-1.9c-1-0.4-1.9-0.8-2.9-1.1c-0.7-0.3-1.4-0.6-2.1-0.9
	c-0.2-0.2-0.5-0.2-0.6-0.4c1.5-0.7,3-1.4,4.5-2.1c0.3,0.1,0.5,0.4,0.7,0.7c0.5,0.5,1,0.9,1.5,1.4c0.3,0.5,0.8,0.8,1.2,1.2
	c0,0.1,0.1,0.2,0.2,0.2c0.3,0.1,0.4,0.5,0.7,0.6C26.1,55.5,26.8,56.2,27.5,57z"/>
<path class="st46" d="M25.5,50.6c0.4,1,0.7,2,1.1,3h-0.1c-0.4-1-0.7-2-1.1-3C25.4,50.6,25.4,50.6,25.5,50.6z"/>
<path class="st46" d="M26.9,54.7c0.4,0.6,0.6,1.3,0.7,2C27.4,56,27.1,55.3,26.9,54.7z"/>
<path class="st83" d="M24.5,53.8c-0.4-0.4-0.9-0.7-1.2-1.2C23.7,53,24.2,53.3,24.5,53.8z"/>
<path class="st35" d="M21.2,50.4c0.2-0.3,0.5-0.6,0.9-0.8C21.9,49.9,21.6,50.2,21.2,50.4z"/>
<path class="st26" d="M22.5,49.4c0.1-0.3,0.4-0.5,0.7-0.7C23.1,49,22.8,49.2,22.5,49.4z"/>
<path class="st75" d="M25.3,54.7c-0.3-0.1-0.5-0.4-0.7-0.6C25,54.1,25.1,54.5,25.3,54.7z"/>
<path class="st51" d="M37.1,42c0.6-0.1,1.3,0.1,1.9,0.2C38.4,42.2,37.8,42,37.1,42z"/>
<path class="st24" d="M44.5,42.6c0.1,0.1,0.4-0.1,0.4,0.2c-0.6-0.2-1.3-0.1-1.9-0.3C43.5,42.5,44,42.6,44.5,42.6z"/>
<path class="st56" d="M51,30.7c0.1,0.2,0,0.3-0.1,0.4c-0.2,0-0.3,0.1-0.5,0.2c-0.1-0.1,0.1-0.3-0.1-0.3C50.5,30.8,50.8,30.8,51,30.7
	z"/>
<path class="st16" d="M47.4,32.4c0.6-0.3,1.1-0.6,1.7-0.8C48.6,32,48.1,32.3,47.4,32.4z"/>
<path class="st89" d="M47.9,33.4c-0.3,0.1-0.5,0.4-0.8,0.6C47.2,33.7,47.6,33.4,47.9,33.4z"/>
<path class="st57" d="M44.4,34.5c-0.2,0.2-0.4,0.4-0.7,0.5C43.9,34.8,44.1,34.6,44.4,34.5L44.4,34.5z"/>
<path class="st30" d="M38.2,32.7c-0.2-0.1-0.4-0.3-0.5-0.4C37.9,32.3,38.1,32.4,38.2,32.7z"/>
<path class="st65" d="M49.1,32.5c-0.2,0.2-0.5,0.4-0.7,0.6C48.5,32.8,48.7,32.5,49.1,32.5z"/>
<path class="st25" d="M39.6,33.6c-0.3,0-0.5-0.1-0.6-0.4C39.3,33.4,39.4,33.5,39.6,33.6z"/>
<path class="st34" d="M37.2,54.4c-0.1-0.6-0.2-1.2-0.3-1.8c0.2,0.6,0.3,1.2,0.4,1.8C37.2,54.4,37.2,54.4,37.2,54.4z"/>
<path class="st46" d="M21,43.4c-0.5-0.5-0.9-1-1.2-1.5C20.3,42.3,20.7,42.8,21,43.4z"/>
<path class="st81" d="M22.7,45.6c-0.3-0.4-0.7-0.6-0.8-1.1C22.2,44.8,22.5,45.1,22.7,45.6z"/>
<path class="st46" d="M21.7,40.2c0.4-0.2,0.8-0.2,1.2-0.2C22.6,40.1,22.1,40.1,21.7,40.2z"/>
<path class="st22" d="M19.8,40.4c0.4-0.2,0.8-0.2,1.2-0.2C20.6,40.4,20.2,40.4,19.8,40.4z"/>
<path class="st83" d="M20.7,48.8c-0.2-0.3-0.2-0.7-0.3-1.1C20.7,48,20.6,48.4,20.7,48.8z"/>
<path class="st90" d="M22.1,33.2C22,33.4,22,33.5,22,33.7c-0.2-0.4,0-0.8,0.1-1.2C22.2,32.8,22.1,33,22.1,33.2z"/>
<path class="st2" d="M51.2,29.1c0.1,0.2,0.4,0.3,0.6,0.4c0.1,0.1,0.3,0.1,0.4,0.3c0,0.1-0.1,0.1-0.2,0.1c-0.9,0-1.8,0.1-2.6,0
	c-1.6,0-3.3,0-4.9,0c-0.2,0-0.3,0-0.5-0.1c0.3-0.4,0.7-0.8,1.1-1.1c0.1-0.3,0.4-0.5,0.6-0.8c0.4-0.4,0.8-0.8,1.3-1.3
	c0.1-0.1,0.2-0.1,0.3,0c0.2,0.4,0.6,0.4,0.9,0.6c0,0,0,0,0.1,0.1c0.3,0.2,0.6,0.3,0.8,0.5c0,0,0.1,0,0.1,0.1
	c0.2,0.3,0.7,0.2,0.9,0.5c0.1,0,0.1,0,0.2,0.1c0.3,0.2,0.6,0.3,0.8,0.5C51.1,29.1,51.2,29.1,51.2,29.1z"/>
<path class="st1" d="M44.8,23.3c0.2,0.1,0.4,0.2,0.6,0.3c0.1,0,0.2,0.1,0.4,0.2c0,0,0.1,0,0.1,0.1c0.3,0.4,0.7,0.5,1.1,0.8
	c0.1,0.1,0.1,0.1,0.2,0.2c0.3,0.3,0.5,0.7,1,0.8c0.1,0.1,0.1,0.1,0.2,0.2c0.3,0.2,0.4,0.6,0.7,0.8c0.2,0.2,0,0.3-0.1,0.3
	c-0.8-0.2-1.7,0-2.4-0.5c-0.1-0.1-0.3-0.2-0.4-0.3c-0.3-0.2-0.6-0.4-0.9-0.5l-0.1-0.1c-0.3-0.2-0.6-0.4-0.9-0.5
	c-0.1,0-0.1-0.1-0.2-0.1c-0.2-0.3-0.7-0.3-0.9-0.7c-0.1,0-0.1,0-0.2-0.1c-0.2-0.3-0.6-0.3-0.9-0.6c-0.1,0-0.1-0.1-0.2-0.1
	C41.7,23,41.3,23,41,22.7h-0.1c-0.3-0.3-0.6-0.4-0.9-0.6l0,0c0-0.1-0.1-0.2-0.2-0.2c-0.1,0-0.1-0.1-0.1-0.2s0.1-0.1,0.2-0.1
	c0.2,0.1,0.4,0.1,0.6,0.2l0,0c0.3,0.2,0.6,0.1,0.8,0.3l0,0c0.6,0.2,1.1,0.4,1.7,0.6l0,0c0.3,0.2,0.6,0.1,0.8,0.3l0,0
	C44.2,23.1,44.5,23.1,44.8,23.3z"/>
<path class="st73" d="M46.5,26.4c0.8,0.3,1.6,0.3,2.4,0.4c-0.1-0.4-0.6-0.5-0.7-0.9c0.5,0,1.1,0.5,1.1,0.9c-0.6,0.3-1.2,0-1.8,0
	c0.2,0.3,0.5,0.3,0.7,0.5c-0.5-0.1-0.8-0.4-1.2-0.6C46.8,26.6,46.6,26.5,46.5,26.4z"/>
<path class="st89" d="M40.5,21.7c-0.2,0-0.5-0.2-0.7-0.1c-0.1,0.3,0.5,0.1,0.2,0.5c-0.5-0.3-1-0.6-1.4-0.9c-0.1,0-0.1,0-0.2,0
	c-0.4-0.1-0.4-0.1-0.1-0.5c0,0,0,0,0-0.1c0.1,0,0.1,0,0.1,0.1c0.1,0.3,0.4,0.4,0.7,0.5c0.1,0,0.4,0,0.4,0.3c0,0.1,0.1,0,0.2,0
	C40,21.5,40.3,21.5,40.5,21.7z"/>
<path class="st27" d="M38.3,20.6c-0.2,0.3,0.1,0.3,0.2,0.5c0,0.1,0,0.2-0.1,0.1c-0.2-0.1-0.2,0.1-0.2,0.1c-0.1-0.3-0.2-0.4-0.5-0.2
	c-0.2,0.2-0.5,0.3-0.8,0.4c0.2-0.3,0.5-0.3,0.7-0.5c0.1-0.1,0.3-0.1,0.3-0.2c0-0.2-0.2-0.1-0.3-0.1s-0.2,0-0.4-0.1
	c0.1-0.1,0.3,0,0.5,0c0.3,0,0.5-0.1,0.3-0.4C38.1,20.4,38.2,20.5,38.3,20.6z"/>
<path class="st60" d="M43.1,24.1c0.3,0.2,0.7,0.3,0.9,0.7C43.8,24.5,43.3,24.5,43.1,24.1z"/>
<path class="st16" d="M41,22.7c0.3,0.3,0.7,0.3,0.9,0.7C41.7,23.1,41.2,23.1,41,22.7z"/>
<path class="st89" d="M40,22.1c0.4,0.1,0.7,0.3,0.9,0.6C40.6,22.5,40.3,22.3,40,22.1z"/>
<path class="st60" d="M42.1,23.4c0.3,0.2,0.7,0.2,0.9,0.6C42.7,23.8,42.3,23.8,42.1,23.4z"/>
<path class="st74" d="M45.7,28c-0.1,0.3-0.4,0.5-0.6,0.8C45.1,28.4,45.4,28.2,45.7,28z"/>
<path class="st16" d="M44.2,24.9c0.3,0.1,0.6,0.3,0.9,0.5C44.8,25.3,44.5,25.1,44.2,24.9z"/>
<path class="st58" d="M45.2,25.5c0.3,0.1,0.6,0.2,0.9,0.5C45.8,25.9,45.5,25.8,45.2,25.5z"/>
<path class="st91" d="M35.2,22.5c-0.5,0.3-1.1,0.6-1.6,0.8v-0.1c0.5-0.3,1.1-0.6,1.6-0.8V22.5z"/>
<path class="st56" d="M32.5,19.6c0.5,0.1,1,0.2,1.4,0.3c0.1,0,0.2,0.1,0.2,0.2C33.6,19.9,33,19.9,32.5,19.6z"/>
<path class="st30" d="M34,13.1c-0.5,0.2-0.9,0.3-1.4,0.3C33.1,13.2,33.5,13,34,13.1z"/>
<path class="st15" d="M31.5,13.6c-0.5,0.2-0.9,0.2-1.4,0.3C30.6,13.7,31,13.5,31.5,13.6z"/>
<path class="st44" d="M34.4,10.3c0.2,0.4,0.4,0.8,0.4,1.2C34.6,11.1,34.5,10.7,34.4,10.3C34.3,10.2,34.4,10.3,34.4,10.3z"/>
<path class="st9" d="M34.4,10.3C34.4,10.3,34.3,10.3,34.4,10.3C34.2,9.9,34,9.6,34,9.2C34.2,9.5,34.3,9.9,34.4,10.3z"/>
<path class="st27" d="M29.3,9c0.3,0,0.5,0.1,0.7,0.4C29.7,9.2,29.5,9.1,29.3,9z"/>
<path class="st27" d="M33.6,8.2c0.2,0.3,0.3,0.5,0.3,0.9C33.7,8.9,33.6,8.6,33.6,8.2z"/>
<path class="st67" d="M35.8,15.2c0.1,0.1,0.1,0.4,0.3,0.4c-0.2,0.2,0,0.3,0,0.5c-0.2-0.2-0.4-0.3-0.6-0.3c-0.5,0-0.9,0.1-1.4,0
	c0.4-0.2,0.8-0.1,1.2-0.1C35.9,15.7,35.9,15.8,35.8,15.2z"/>
<path class="st73" d="M32.8,16c0.4-0.1,0.9-0.1,1.4-0.1C33.7,16.1,33.2,16.1,32.8,16z"/>
<path class="st15" d="M31.5,16.1c0.4-0.2,0.8-0.1,1.3-0.1C32.4,16.1,31.9,16.1,31.5,16.1z"/>
<path class="st44" d="M36.2,16.2c0.2,0.3,0.4,0.7,0.5,1.1C36.4,17,36.2,16.6,36.2,16.2z"/>
<path class="st56" d="M34.9,18.8c0.3,0.2,0.7,0.3,0.9,0.6C35.5,19.2,35.1,19.1,34.9,18.8L34.9,18.8z"/>
<path class="st44" d="M36.8,17.7c0.3,0.3,0.4,0.7,0.5,1.1C37.1,18.5,36.9,18.1,36.8,17.7z"/>
<path class="st64" d="M37.5,19.2c0.3,0.3,0.5,0.7,0.5,1.1C37.8,20,37.6,19.6,37.5,19.2z"/>
<path class="st56" d="M34.9,18.8c-0.3-0.1-0.6-0.3-0.8-0.5C34.4,18.4,34.7,18.5,34.9,18.8L34.9,18.8z"/>
<path class="st64" d="M35.4,13.2C35.4,13.1,35.4,13.1,35.4,13.2c0.2,0.3,0.3,0.8,0.3,1.3C35.5,14,35.4,13.6,35.4,13.2z"/>
<path class="st32" d="M30.9,16.1C30.9,16.1,30.9,16,30.9,16.1c0.1-0.4,0.4-0.6,0.7-0.8l0,0C31.5,15.7,31.1,15.8,30.9,16.1z"/>
<path class="st21" d="M33.5,14.1c0.1-0.2,0.4-0.3,0.5-0.5C34,13.9,34,13.9,33.5,14.1z"/>
<path class="st21" d="M31.7,15.3c0.2-0.1,0.4-0.4,0.7-0.4C32.1,15.1,32,15.4,31.7,15.3C31.7,15.4,31.7,15.3,31.7,15.3z"/>
<path class="st91" d="M49.4,29.9c0.8,0,1.6,0,2.4,0c0.1,0,0.2,0,0.4-0.1c0.1,0,0.2,0,0.2,0.1S52.3,30,52.2,30
	c-0.5-0.2-0.9-0.1-1.4-0.1C50.3,30,49.8,30,49.4,29.9C49.4,30,49.4,29.9,49.4,29.9z"/>
<path class="st62" d="M46.2,20.1c-0.2,0.8-0.3,1.5-0.5,2.3c0-0.7,0.3-1.4,0.4-2.1C46.1,20.2,46.1,20.2,46.2,20.1z"/>
<path class="st44" d="M38.4,20.6L38.4,20.6c-0.1-0.3-0.1-0.4,0-0.6c0.2,0,0.1,0.2,0.2,0.2c0.1-0.2,0.2-0.5,0.4-0.6
	C38.8,20,38.8,20.4,38.4,20.6z"/>
<path class="st73" d="M43.1,22.7c-0.6-0.1-1.1-0.4-1.7-0.6C42,22.1,42.5,22.4,43.1,22.7z"/>
<path class="st12" d="M45.8,23.8c-0.1-0.1-0.2-0.2-0.3-0.2l0.1-0.1c0.3,0.2,0.7,0.1,0.9,0.4C46.2,24.1,46,23.9,45.8,23.8z"/>
<path class="st25" d="M43,18.6c-0.2,0.3-0.5,0.4-0.8,0.4C42.5,18.9,42.8,18.7,43,18.6z"/>
<path class="st58" d="M44.8,23.3c-0.3-0.1-0.7-0.1-0.9-0.3C44.2,23,44.6,23.1,44.8,23.3z"/>
<path class="st59" d="M40,17.7c0.1-0.3,0.2-0.6,0.4-0.8C40.4,17.2,40.3,17.5,40,17.7z"/>
<path class="st16" d="M41.4,22.1c-0.3-0.1-0.6-0.1-0.8-0.3C40.8,21.8,41.2,21.8,41.4,22.1z"/>
<path class="st59" d="M40.5,16.8c0.1-0.3,0.2-0.6,0.4-0.9C40.9,16.2,40.8,16.6,40.5,16.8z"/>
<path class="st67" d="M39,19.6c0-0.3,0.2-0.6,0.4-0.9C39.4,19.1,39.2,19.4,39,19.6z"/>
<path class="st89" d="M43.9,23c-0.3-0.1-0.6-0.1-0.8-0.3C43.4,22.7,43.7,22.7,43.9,23z"/>
<path class="st63" d="M53.7,26.6c-0.2-0.6-0.2-1.3-0.2-1.9c0-0.2-0.2-0.4,0.1-0.6c0.2,0.8,0.1,1.5,0.2,2.3
	C53.8,26.4,53.8,26.5,53.7,26.6z"/>
<path class="st7" d="M53.4,22.6c-0.2-0.3-0.1-0.6-0.1-0.9c0-0.4-0.1-0.8-0.1-1.2c0.3,0.4,0.2,0.8,0.3,1.3
	C53.4,22.1,53.5,22.3,53.4,22.6z"/>
<path class="st74" d="M54.6,20.7c0.1,0.5-0.2,0.9-0.2,1.4C54.3,21.6,54.5,21.2,54.6,20.7z"/>
<path class="st67" d="M53.6,23.9c-0.3-0.4-0.2-0.8-0.2-1.3C53.6,23.1,53.5,23.5,53.6,23.9z"/>
<path class="st6" d="M45.8,23.8c0.2-0.1,0.4,0,0.7,0.1s0.6,0.2,0.8,0.3c0.2,0.2,0.6,0.1,0.8,0.3c0.2,0.2,0.5,0.1,0.8,0.2
	c0.3,0.2,0.7,0.1,0.9,0.3l0,0c0.4,0.1,0.7,0.4,1,0.7c0.1,0.1,0.1,0.2,0.2,0.3c0.4,0.3,0.8,0.7,1.1,1.1c0.1,0.1,0.1,0.2,0.2,0.2
	c0.4,0.4,0.9,0.7,1.2,1.2c0,0,0,0,0,0.1c-0.9-0.3-1.6-0.7-2.5-1.1c-0.3-0.1-0.6-0.3-0.9-0.3c-0.2-0.2-0.6-0.1-0.8-0.4
	c-0.1-0.1-0.1-0.1-0.2-0.2c-0.4-0.3-0.7-0.6-1.1-0.9c-0.1,0-0.1-0.1-0.2-0.1c-0.3-0.3-0.7-0.5-1-0.8c0-0.1-0.1-0.1-0.1-0.2
	C46.5,24.4,46.1,24.2,45.8,23.8L45.8,23.8z"/>
<path class="st12" d="M50.8,25.8c-0.1-0.1-0.2-0.1-0.3-0.2c-0.2-0.3-0.3-0.2-0.5,0.1c0.2-0.3,0-0.5-0.2-0.6c0.3,0,0.3-0.1,0.2-0.3
	c-0.1-0.3-0.3-0.6-0.4-1c0.4,0.3,0.3,0.7,0.6,1c0.1-0.2-0.1-0.3,0.1-0.5c0,0.1,0.1,0.2,0.1,0.2C50.3,25,50.4,25.4,50.8,25.8z"/>
<path class="st44" d="M50.2,18.8c0.1,0.5,0.1,0.9,0,1.4C50.2,19.7,50.1,19.2,50.2,18.8z"/>
<path class="st25" d="M50.2,22.9c0.1,0.5,0.1,0.9,0,1.4C50.2,23.8,50.1,23.4,50.2,22.9z"/>
<path class="st36" d="M48.3,20.6c0.2,0.3,0.3,0.7,0.5,1C48.5,21.3,48.4,20.9,48.3,20.6z"/>
<path class="st17" d="M47.8,19.1c-0.3-0.2-0.2-0.5-0.4-0.8C47.7,18.5,47.7,18.8,47.8,19.1L47.8,19.1z"/>
<path class="st17" d="M49.8,25.1c-0.3-0.1-0.7-0.1-0.9-0.3C49.2,24.8,49.5,24.8,49.8,25.1z"/>
<path class="st91" d="M47.8,19.1c0.1,0.3,0.3,0.5,0.3,0.8C47.9,19.7,47.8,19.4,47.8,19.1L47.8,19.1z"/>
<path class="st14" d="M48.1,24.5c-0.3-0.1-0.6,0-0.8-0.3C47.5,24.3,47.9,24.2,48.1,24.5z"/>
<path class="st40" d="M38.7,18.5c0.1,0.2,0.1,0.4,0,0.6C38.6,18.9,38.6,18.7,38.7,18.5z"/>
<path class="st34" d="M39.4,14.7c0.1,0.2,0.1,0.4-0.1,0.6C39.3,15,39.2,14.9,39.4,14.7z"/>
<path class="st14" d="M39.6,13.9c-0.1-0.3-0.1-0.4,0-0.6C39.7,13.4,39.7,13.6,39.6,13.9z"/>
<path class="st25" d="M53.6,28.7c-0.4-0.4-0.9-0.7-1.2-1.2C52.9,27.8,53.3,28.1,53.6,28.7z"/>
<path class="st62" d="M52.1,27.2c-0.4-0.3-0.8-0.7-1.1-1.1C51.5,26.4,51.9,26.7,52.1,27.2z"/>
<path class="st14" d="M52.1,22.6c0.1-0.3,0.2-0.6,0.4-0.8C52.4,22.1,52.2,22.4,52.1,22.6z"/>
<path class="st32" d="M51.4,23.6c0-0.3,0.2-0.5,0.4-0.7C51.7,23.1,51.6,23.3,51.4,23.6z"/>
<path class="st32" d="M50.7,24.5c0.1-0.2,0.2-0.4,0.4-0.6C51,24.2,50.9,24.4,50.7,24.5z"/>
<path class="st56" d="M49.3,35.7c0-0.3,0.1-0.6,0.4-0.7C49.5,35.2,49.4,35.5,49.3,35.7z"/>
<path class="st9" d="M48.5,36.9c-0.1,0.3-0.2,0.5-0.3,0.7C48.2,37.4,48.3,37.1,48.5,36.9z"/>
<path class="st27" d="M50.1,34c0,0.3-0.1,0.5-0.3,0.6C49.9,34.5,50,34.3,50.1,34z"/>
<path class="st21" d="M48.6,36.6c0.1-0.2,0.2-0.4,0.3-0.6C49,36.2,48.9,36.4,48.6,36.6z"/>
<path class="st78" d="M35.9,8.7C35.8,8,36,7.4,36.1,6.8C36.2,7.5,36,8.1,35.9,8.7z"/>
<path class="st20" d="M35.5,12.5c0,0.1-0.1,0.2-0.1,0.2C35.3,12.7,35.4,12.6,35.5,12.5c-0.1-0.4,0-0.8,0-1.2h0.1
	C35.6,11.7,35.4,12.1,35.5,12.5z"/>
<path class="st7" d="M37,3.9c0.4,0.4,0.9,0.7,1.3,1.3C37.8,4.8,37.3,4.4,37,3.9z"/>
<path class="st7" d="M38.4,5.3c0.3,0.3,0.6,0.5,0.9,0.8c0.1,0.1,0.3,0.2,0.3,0.4C39.2,6.1,38.6,5.8,38.4,5.3z"/>
<path class="st7" d="M49.5,26.9c0.3,0.1,0.6,0.1,0.8,0.4c-0.1,0-0.3-0.1-0.4-0.1c-0.1,0.1,0.1,0.2,0.1,0.3
	C49.7,27.4,49.5,27.2,49.5,26.9z"/>
<path class="st65" d="M51,29.1c-0.3-0.2-0.6-0.2-0.8-0.5C50.5,28.7,50.9,28.8,51,29.1z"/>
<path class="st16" d="M49,27.9c-0.3-0.2-0.6-0.2-0.8-0.5C48.5,27.5,48.9,27.5,49,27.9z"/>
<path class="st16" d="M50,28.5c-0.3-0.2-0.7-0.2-0.9-0.5C49.5,28.1,49.9,28.1,50,28.5z"/>
<path class="st60" d="M45.7,23.8c0.4,0.3,0.8,0.5,1.1,0.9C46.4,24.5,46,24.3,45.7,23.8z"/>
<path class="st73" d="M47,24.9c0.4,0.2,0.8,0.4,1,0.8C47.7,25.5,47.3,25.3,47,24.9z"/>
<path class="st73" d="M45.7,24.9c0.2,0.1,0.5,0.2,0.7,0.3v0.1C46.1,25.2,45.9,25.1,45.7,24.9L45.7,24.9z"/>
<path class="st59" d="M45.4,24.8c-0.2-0.1-0.4-0.2-0.6-0.3C45,24.5,45.2,24.6,45.4,24.8z"/>
<path class="st16" d="M47.6,25.9c0.2,0.1,0.5,0.2,0.7,0.3v0.1C48,26.2,47.8,26.1,47.6,25.9C47.5,26,47.6,25.9,47.6,25.9z"/>
<polygon class="st92" points="9.1,38.8 37,38.8 37,46.8 59,32.6 37.4,18.6 37.4,26.5 9.1,26.5 "/>
</svg>
